<svg width="20" height="20" viewBox="0 0 20 20" fill="none" xmlns="http://www.w3.org/2000/svg">
<g clip-path="url(#clip0_1429_11704)">
<path d="M10.3311 19.8908C15.5557 19.8908 19.7911 15.6549 19.7911 10.4298C19.7911 5.20459 15.5557 0.96875 10.3311 0.96875C5.10648 0.96875 0.871094 5.20459 0.871094 10.4298C0.871094 15.6549 5.10648 19.8908 10.3311 19.8908Z" fill="url(#paint0_linear_1429_11704)"/>
<path d="M8.60946 12.6167L10.8391 10.4267L8.60946 8.23681C8.38539 8.01668 8.38539 7.66108 8.60946 7.44095C8.8336 7.22086 9.1956 7.22086 9.41974 7.44095L12.0573 10.0316C12.2814 10.2518 12.2814 10.6074 12.0573 10.8275L9.41974 13.4182C9.1956 13.6382 8.8336 13.6382 8.60946 13.4182C8.39113 13.198 8.38539 12.8368 8.60946 12.6167Z" fill="white"/>
</g>
<defs>
<linearGradient id="paint0_linear_1429_11704" x1="19.7332" y1="10.4298" x2="0.929009" y2="10.4298" gradientUnits="userSpaceOnUse">
<stop stop-color="#E346EB"/>
<stop offset="1" stop-color="#6B0EAD"/>
</linearGradient>
<clipPath id="clip0_1429_11704">
<rect width="18.92" height="18.922" fill="white" transform="translate(0.871094 0.96875)"/>
</clipPath>
</defs>
</svg>
