<svg width="36" height="36" viewBox="0 0 36 36" fill="none" xmlns="http://www.w3.org/2000/svg">
<rect opacity="0.15" x="1.5026" y="1.55534" width="33.3333" height="33.3333" rx="16.6667" stroke="#D0DAF5" stroke-width="1.33333"/>
<path fill-rule="evenodd" clip-rule="evenodd" d="M15.0651 23.999H12.3984V15.999H15.0651V23.999Z" fill="#D0DAF5"/>
<path fill-rule="evenodd" clip-rule="evenodd" d="M13.7238 14.2214H13.7087C12.9129 14.2214 12.3984 13.6285 12.3984 12.8876C12.3984 12.131 12.9286 11.5547 13.7395 11.5547C14.5504 11.5547 15.0497 12.131 15.0651 12.8876C15.0651 13.6285 14.5504 14.2214 13.7238 14.2214Z" fill="#D0DAF5"/>
<path fill-rule="evenodd" clip-rule="evenodd" d="M24.8436 23.9988H22.2233V19.8171C22.2233 18.7668 21.8441 18.05 20.8954 18.05C20.1715 18.05 19.7402 18.5332 19.5509 18.9999C19.4816 19.1672 19.4646 19.4002 19.4646 19.6338V23.999H16.8438C16.8438 23.999 16.8783 16.9162 16.8438 16.1828H19.4646V17.2899C19.8124 16.7577 20.4353 15.999 21.8266 15.999C23.551 15.999 24.8438 17.1164 24.8438 19.5172L24.8436 23.9988Z" fill="#D0DAF5"/>
</svg>
