<svg width="36" height="36" viewBox="0 0 36 36" fill="none" xmlns="http://www.w3.org/2000/svg">
<rect opacity="0.15" x="1.61198" y="1.55534" width="33.3333" height="33.3333" rx="16.6667" stroke="#D0DAF5" stroke-width="1.33333"/>
<path fill-rule="evenodd" clip-rule="evenodd" d="M18.1109 15.9336L18.1359 16.3565L17.7185 16.3047C16.1988 16.1062 14.8713 15.433 13.7441 14.3024L13.193 13.7414L13.0511 14.1556C12.7505 15.0792 12.9425 16.0544 13.5687 16.7104C13.9027 17.0729 13.8276 17.1247 13.2515 16.9089C13.0511 16.8399 12.8757 16.7881 12.859 16.814C12.8006 16.8744 13.001 17.6598 13.1596 17.9705C13.3767 18.4021 13.8192 18.825 14.3035 19.0753L14.7126 19.2738L14.2284 19.2824C13.7608 19.2824 13.7441 19.2911 13.7942 19.4723C13.9612 20.0333 14.6208 20.6289 15.3555 20.8878L15.8732 21.069L15.4223 21.3452C14.7544 21.7422 13.9695 21.9666 13.1847 21.9839C12.8089 21.9925 12.5 22.0271 12.5 22.053C12.5 22.1393 13.5186 22.6226 14.1115 22.8125C15.8899 23.3735 18.0023 23.1318 19.5887 22.1738C20.7159 21.4919 21.8431 20.1369 22.3691 18.825C22.653 18.1259 22.9369 16.8485 22.9369 16.2357C22.9369 15.8387 22.962 15.7869 23.4295 15.3122C23.7051 15.036 23.9639 14.7339 24.014 14.6476C24.0975 14.4836 24.0891 14.4836 23.6633 14.6303C22.9536 14.8893 22.8534 14.8547 23.2041 14.4664C23.4629 14.1902 23.7719 13.6896 23.7719 13.5428C23.7719 13.517 23.6466 13.5601 23.5047 13.6378C23.3544 13.7241 23.0204 13.8536 22.7699 13.9312L22.319 14.078L21.9099 13.7931C21.6845 13.6378 21.3672 13.4652 21.2002 13.4134C20.7744 13.2925 20.1231 13.3098 19.739 13.4479C18.6953 13.8363 18.0357 14.8375 18.1109 15.9336Z" fill="#D0DAF5"/>
</svg>
