<svg width="15" height="15" viewBox="0 0 15 15" fill="none" xmlns="http://www.w3.org/2000/svg">
<path fill-rule="evenodd" clip-rule="evenodd" d="M12.8546 2.85414C12.9011 2.80766 12.938 2.75247 12.9632 2.69173C12.9883 2.63099 13.0013 2.56589 13.0013 2.50014C13.0013 2.4344 12.9883 2.3693 12.9632 2.30856C12.938 2.24782 12.9011 2.19263 12.8546 2.14614C12.8081 2.09966 12.753 2.06278 12.6922 2.03762C12.6315 2.01246 12.5664 1.99951 12.5006 1.99951C12.4349 1.99951 12.3698 2.01246 12.309 2.03762C12.2483 2.06278 12.1931 2.09966 12.1466 2.14614L7.50063 6.79314L2.85463 2.14614C2.80814 2.09966 2.75295 2.06278 2.69221 2.03762C2.63148 2.01246 2.56638 1.99951 2.50063 1.99951C2.43489 1.99951 2.36979 2.01246 2.30905 2.03762C2.24831 2.06278 2.19312 2.09966 2.14663 2.14614C2.10014 2.19263 2.06327 2.24782 2.03811 2.30856C2.01295 2.3693 2 2.4344 2 2.50014C2 2.56589 2.01295 2.63099 2.03811 2.69173C2.06327 2.75247 2.10014 2.80766 2.14663 2.85414L6.79363 7.50014L2.14663 12.1461C2.05274 12.24 2 12.3674 2 12.5001C2 12.6329 2.05274 12.7603 2.14663 12.8541C2.24052 12.948 2.36786 13.0008 2.50063 13.0008C2.63341 13.0008 2.76075 12.948 2.85463 12.8541L7.50063 8.20714L12.1466 12.8541C12.2405 12.948 12.3679 13.0008 12.5006 13.0008C12.6334 13.0008 12.7607 12.948 12.8546 12.8541C12.9485 12.7603 13.0013 12.6329 13.0013 12.5001C13.0013 12.3674 12.9485 12.24 12.8546 12.1461L8.20763 7.50014L12.8546 2.85414Z" fill="white"/>
</svg>
