<svg width="192" height="162" viewBox="0 0 192 162" fill="none" xmlns="http://www.w3.org/2000/svg">
<path d="M93.9681 31.1772H62.5586V74.7221H93.9681V31.1772Z" stroke="black" stroke-width="0.751105" stroke-miterlimit="10"/>
<path d="M90.1081 36.5322H66.4219V69.3712H90.1081V36.5322Z" stroke="black" stroke-width="0.751105" stroke-miterlimit="10"/>
<path d="M151.546 53.6641H129.66V84.0025H151.546V53.6641Z" stroke="black" stroke-width="0.751105" stroke-miterlimit="10"/>
<path d="M148.86 57.394H132.355V80.2738H148.86V57.394Z" stroke="black" stroke-width="0.751105" stroke-miterlimit="10"/>
<path d="M179.629 111.116C179.629 111.116 180.055 109.596 180.055 109.498C180.217 108.346 179.85 106.025 178.677 105.457C178.48 105.369 178.266 105.323 178.05 105.323C177.833 105.322 177.62 105.368 177.422 105.455C177.224 105.543 177.047 105.671 176.903 105.832C176.758 105.993 176.649 106.182 176.582 106.388C176.266 107.241 176.663 108.312 177.137 109.042C177.691 109.895 179.624 111.116 179.629 111.116Z" fill="black"/>
<path d="M156.5 110.612C157.435 111.038 159.722 110.97 159.726 110.97C159.73 110.97 159.231 109.472 159.189 109.383C158.689 108.333 157.102 106.601 155.809 106.775C155.596 106.81 155.392 106.889 155.212 107.008C155.031 107.127 154.878 107.282 154.761 107.464C154.645 107.646 154.568 107.851 154.536 108.064C154.504 108.278 154.518 108.496 154.576 108.704C154.789 109.6 155.707 110.266 156.5 110.612Z" fill="black"/>
<path d="M160.051 105.978H160.072C160.021 106.345 159.97 106.737 159.923 107.173C159.846 107.97 159.765 108.879 159.739 109.861C159.702 110.927 159.728 111.994 159.816 113.057C159.909 114.247 160.108 115.426 160.409 116.581V116.62C160.204 116.3 159.598 115.416 159.556 115.34C158.792 114.461 156.808 113.206 155.609 113.714C155.411 113.804 155.235 113.934 155.092 114.097C154.949 114.26 154.841 114.451 154.777 114.658C154.712 114.865 154.692 115.083 154.718 115.298C154.744 115.514 154.815 115.721 154.926 115.907C155.353 116.709 156.428 117.11 157.286 117.234C158.254 117.375 160.298 116.807 160.46 116.735C160.794 117.9 161.208 119.04 161.698 120.149C161.975 120.797 162.278 121.429 162.594 122.086C162.406 121.813 162.235 121.574 162.21 121.54C161.45 120.661 159.462 119.406 158.263 119.918C158.063 120.008 157.884 120.14 157.739 120.304C157.594 120.469 157.486 120.662 157.422 120.872C157.358 121.081 157.339 121.302 157.367 121.52C157.395 121.737 157.469 121.946 157.584 122.133C158.011 122.939 159.086 123.336 159.948 123.464C160.81 123.592 162.568 123.118 163.029 122.99C163.153 123.234 163.272 123.481 163.396 123.729C163.985 124.902 164.582 126.075 165.128 127.24C165.32 127.667 165.495 128.064 165.675 128.478C165.508 128.234 165.367 128.051 165.342 128.004C164.582 127.125 162.594 125.871 161.395 126.383C161.198 126.473 161.022 126.603 160.88 126.765C160.737 126.928 160.629 127.118 160.565 127.325C160.501 127.531 160.48 127.749 160.506 127.964C160.531 128.179 160.601 128.386 160.712 128.572C161.139 129.378 162.214 129.775 163.076 129.899C163.938 130.022 165.525 129.604 166.063 129.451C166.229 129.877 166.4 130.304 166.545 130.731C166.635 131.021 166.746 131.294 166.818 131.584C166.891 131.874 166.98 132.164 167.061 132.438C167.194 132.996 167.339 133.568 167.454 134.114C167.539 134.494 167.612 134.857 167.684 135.224C167.497 134.797 167.113 134.012 167.074 133.944C166.455 132.962 164.68 131.422 163.417 131.742C163.209 131.802 163.016 131.904 162.851 132.043C162.685 132.182 162.551 132.354 162.456 132.549C162.361 132.743 162.308 132.955 162.3 133.171C162.292 133.387 162.33 133.602 162.41 133.803C162.726 134.656 163.712 135.224 164.544 135.476C165.457 135.757 167.484 135.501 167.736 135.476C167.859 136.082 167.97 136.67 168.068 137.229C168.376 138.983 168.576 140.481 168.713 141.59H169.587C169.43 140.459 169.191 138.915 168.828 137.089C168.704 136.474 168.563 135.808 168.401 135.147C169.01 134.898 169.605 134.613 170.181 134.294C170.846 135.015 172.557 135.86 172.775 135.966C172.544 136.538 172.314 137.093 172.088 137.609C171.384 139.231 170.731 140.575 170.232 141.573H171.239C171.691 140.6 172.25 139.363 172.843 137.912C173.082 137.332 173.325 136.709 173.569 136.064C173.816 136.116 175.817 136.521 176.752 136.312C177.605 136.12 178.625 135.642 179.005 134.801C179.101 134.607 179.156 134.395 179.164 134.178C179.173 133.961 179.136 133.745 179.056 133.544C178.975 133.342 178.853 133.16 178.697 133.009C178.541 132.858 178.355 132.742 178.151 132.668C176.918 132.241 175.032 133.658 174.341 134.592C174.302 134.648 173.914 135.296 173.697 135.71C173.795 135.446 173.893 135.19 173.991 134.917C174.187 134.383 174.366 133.841 174.563 133.257C174.648 132.975 174.738 132.685 174.823 132.403C174.908 132.122 174.977 131.806 175.053 131.503C175.224 130.799 175.356 130.074 175.48 129.344C175.95 129.515 177.614 130.099 178.501 130.039C179.389 129.98 180.455 129.66 180.955 128.887C181.079 128.71 181.164 128.509 181.205 128.297C181.246 128.085 181.242 127.867 181.194 127.657C181.145 127.446 181.053 127.248 180.923 127.076C180.792 126.903 180.627 126.76 180.438 126.656C179.282 126.058 177.204 127.159 176.38 127.978C176.329 128.03 175.804 128.683 175.527 129.049C175.595 128.623 175.668 128.17 175.723 127.722C175.881 126.442 176.005 125.12 176.15 123.81C176.188 123.409 176.231 123.012 176.274 122.611C176.44 122.675 178.407 123.413 179.397 123.345C180.251 123.285 181.352 122.965 181.855 122.197C181.98 122.019 182.065 121.818 182.106 121.605C182.148 121.392 182.144 121.173 182.095 120.962C182.045 120.751 181.952 120.553 181.821 120.38C181.69 120.208 181.525 120.065 181.334 119.961C180.178 119.363 178.104 120.464 177.277 121.284C177.217 121.348 176.462 122.291 176.282 122.538C176.376 121.659 176.474 120.784 176.611 119.922C176.785 118.761 177.036 117.612 177.362 116.483C177.439 116.513 179.495 117.294 180.502 117.221C181.356 117.162 182.457 116.846 182.956 116.074C183.08 115.896 183.165 115.695 183.207 115.483C183.248 115.27 183.244 115.051 183.195 114.841C183.147 114.63 183.054 114.432 182.924 114.259C182.794 114.086 182.629 113.943 182.44 113.838C181.283 113.24 179.205 114.341 178.382 115.165C178.326 115.216 177.754 115.933 177.486 116.283L177.422 116.248C177.779 115.122 178.236 114.03 178.787 112.984C179.082 112.404 179.397 111.866 179.717 111.35C180.089 111.533 181.787 112.361 182.704 112.395C183.622 112.429 184.688 112.233 185.264 111.521C185.408 111.359 185.515 111.168 185.579 110.962C185.644 110.756 185.664 110.538 185.639 110.323C185.613 110.109 185.543 109.902 185.432 109.716C185.321 109.531 185.173 109.37 184.996 109.246C183.908 108.525 181.727 109.391 180.814 110.1C180.767 110.138 180.306 110.595 179.961 110.932C180.11 110.701 180.255 110.458 180.387 110.241C180.929 109.421 181.48 108.704 181.97 108.073C182.256 107.714 182.516 107.399 182.764 107.104C183.225 107.104 185.064 107.04 185.87 106.678C186.677 106.315 187.577 105.619 187.748 104.719C187.799 104.51 187.807 104.292 187.769 104.079C187.731 103.867 187.649 103.665 187.529 103.486C187.408 103.307 187.252 103.155 187.069 103.041C186.886 102.926 186.681 102.851 186.468 102.82C185.188 102.684 183.634 104.459 183.161 105.521C183.118 105.611 182.644 107.121 182.67 107.121H182.696C182.452 107.399 182.192 107.702 181.915 108.034C181.407 108.657 180.84 109.366 180.276 110.168C179.655 111.035 179.085 111.939 178.569 112.873C177.99 113.918 177.505 115.012 177.119 116.142V116.18C177.119 115.8 177.119 114.734 177.097 114.653C176.948 113.496 175.984 111.358 174.704 111.12C174.49 111.086 174.271 111.097 174.062 111.154C173.852 111.21 173.658 111.31 173.49 111.447C173.322 111.584 173.184 111.755 173.087 111.948C172.99 112.142 172.934 112.354 172.924 112.57C172.847 113.488 173.513 114.405 174.162 114.981C174.891 115.634 176.922 116.261 177.08 116.317C176.717 117.476 176.432 118.657 176.227 119.854C176.099 120.55 175.996 121.258 175.903 121.966C175.903 121.638 175.903 121.339 175.903 121.301C175.753 120.144 174.785 118.006 173.505 117.768C173.291 117.734 173.073 117.747 172.864 117.803C172.655 117.86 172.461 117.96 172.293 118.097C172.126 118.234 171.989 118.404 171.892 118.598C171.795 118.791 171.739 119.002 171.729 119.218C171.653 120.136 172.318 121.053 172.967 121.629C173.615 122.205 175.339 122.79 175.796 122.939L175.694 123.754C175.54 125.06 175.386 126.366 175.203 127.641C175.135 128.089 175.053 128.529 174.977 128.973C174.977 128.678 174.977 128.431 174.977 128.392C174.827 127.24 173.859 125.098 172.579 124.864C172.365 124.83 172.146 124.841 171.937 124.898C171.728 124.954 171.534 125.054 171.366 125.191C171.198 125.328 171.062 125.499 170.965 125.693C170.868 125.886 170.813 126.098 170.804 126.314C170.727 127.227 171.392 128.145 172.041 128.725C172.69 129.306 174.247 129.83 174.789 130.005C174.695 130.453 174.601 130.906 174.49 131.337C174.405 131.627 174.345 131.913 174.243 132.19C174.14 132.467 174.059 132.766 173.97 133.043C173.773 133.581 173.573 134.136 173.368 134.656C173.231 135.019 173.091 135.36 172.941 135.706C173.01 135.279 173.129 134.383 173.129 134.311C173.116 133.287 172.84 132.283 172.327 131.396C172.332 131.284 172.325 131.17 172.305 131.059C172.28 130.844 172.208 130.637 172.097 130.452C171.985 130.266 171.836 130.106 171.658 129.983C171.48 129.859 171.279 129.774 171.066 129.734C170.853 129.694 170.634 129.699 170.424 129.749C169.165 130.086 168.367 132.31 168.29 133.457C168.29 133.526 168.329 134.272 168.367 134.737C168.303 134.464 168.243 134.2 168.175 133.918C168.043 133.359 167.898 132.809 167.748 132.211C167.663 131.925 167.573 131.64 167.488 131.358C167.403 131.076 167.283 130.773 167.181 130.479C166.933 129.796 166.647 129.118 166.327 128.444C166.814 128.324 168.542 127.885 169.233 127.355C169.925 126.826 170.654 125.96 170.646 125.043C170.652 124.826 170.612 124.611 170.53 124.411C170.447 124.211 170.323 124.031 170.166 123.882C170.009 123.733 169.822 123.619 169.618 123.547C169.414 123.475 169.197 123.447 168.981 123.464C167.701 123.605 166.562 125.666 166.327 126.805C166.327 126.878 166.238 127.714 166.204 128.175C166.016 127.769 165.837 127.364 165.636 126.959C165.056 125.794 164.433 124.633 163.818 123.473L163.259 122.401C163.434 122.363 165.495 121.885 166.272 121.288C166.959 120.759 167.689 119.897 167.684 118.975C167.69 118.759 167.65 118.544 167.567 118.344C167.484 118.145 167.36 117.965 167.203 117.816C167.046 117.667 166.86 117.553 166.656 117.48C166.452 117.408 166.236 117.379 166.02 117.396C164.74 117.537 163.601 119.602 163.366 120.742C163.366 120.827 163.238 122.022 163.225 122.337C162.82 121.552 162.419 120.767 162.056 119.974C161.56 118.908 161.133 117.812 160.776 116.692C160.857 116.692 163.012 116.184 163.806 115.574C164.497 115.045 165.227 114.179 165.218 113.262C165.224 113.045 165.185 112.83 165.102 112.63C165.019 112.43 164.895 112.25 164.738 112.101C164.581 111.952 164.395 111.837 164.191 111.765C163.987 111.693 163.77 111.665 163.554 111.683C162.274 111.824 161.134 113.885 160.9 115.024C160.9 115.101 160.802 116.018 160.772 116.453H160.699C160.373 115.317 160.152 114.153 160.038 112.976C159.961 112.327 159.931 111.696 159.91 111.098C160.337 111.051 162.193 110.799 162.969 110.33C163.746 109.861 164.535 109.101 164.629 108.197C164.659 107.982 164.643 107.764 164.582 107.556C164.522 107.348 164.419 107.156 164.279 106.99C164.139 106.825 163.967 106.691 163.772 106.596C163.577 106.502 163.365 106.45 163.148 106.443C161.843 106.443 160.503 108.367 160.162 109.477C160.14 109.536 160.008 110.168 159.923 110.633C159.923 110.36 159.923 110.074 159.923 109.814C159.923 108.828 159.987 107.928 160.046 107.13C160.085 106.673 160.127 106.276 160.174 105.884C160.55 105.624 162.056 104.561 162.521 103.802C162.986 103.042 163.345 101.988 163.008 101.13C162.933 100.927 162.816 100.741 162.665 100.586C162.514 100.431 162.332 100.309 162.131 100.228C161.93 100.148 161.714 100.11 161.497 100.119C161.281 100.127 161.069 100.181 160.874 100.277C159.718 100.874 159.415 103.204 159.594 104.352C159.594 104.467 160.029 105.991 160.051 105.978Z" fill="black"/>
<path d="M100.344 143.135H82.1282L68.9688 150.239H88.8317L100.344 143.135Z" fill="#E5E5E5" stroke="black" stroke-width="0.751105" stroke-linecap="round" stroke-linejoin="round"/>
<path d="M81.9414 144.854H95.7111" stroke="black" stroke-width="0.751105" stroke-linecap="round" stroke-linejoin="round"/>
<path d="M79.8242 145.96H93.5939" stroke="black" stroke-width="0.751105" stroke-linecap="round" stroke-linejoin="round"/>
<path d="M77.7109 147.065H91.4806" stroke="black" stroke-width="0.751105" stroke-linecap="round" stroke-linejoin="round"/>
<path d="M75.6016 148.174H89.3712" stroke="black" stroke-width="0.751105" stroke-linecap="round" stroke-linejoin="round"/>
<path d="M68.9688 150.239V151.464H89.2456L88.8317 150.239H68.9688Z" fill="#E5E5E5" stroke="black" stroke-width="0.751105" stroke-linecap="round" stroke-linejoin="round"/>
<path d="M89.2459 151.464L100.878 144.18L100.344 143.135L88.832 150.239L89.2459 151.464Z" fill="#E5E5E5" stroke="black" stroke-width="0.751105" stroke-linecap="round" stroke-linejoin="round"/>
<path d="M69.2969 149.868C69.2659 149.745 69.2501 149.619 69.25 149.492C69.2501 149.213 69.333 148.94 69.4882 148.708C69.6434 148.476 69.8639 148.295 70.1219 148.188C70.38 148.081 70.6639 148.053 70.9378 148.108C71.2117 148.162 71.4633 148.297 71.6609 148.494" stroke="black" stroke-width="0.751105" stroke-linecap="round" stroke-linejoin="round"/>
<path d="M71.1446 149.015C71.1138 148.894 71.098 148.769 71.0977 148.644C71.0977 148.365 71.1806 148.092 71.3358 147.859C71.491 147.627 71.7116 147.446 71.9696 147.339C72.2276 147.233 72.5115 147.205 72.7855 147.259C73.0594 147.314 73.311 147.448 73.5085 147.645" stroke="black" stroke-width="0.751105" stroke-linecap="round" stroke-linejoin="round"/>
<path d="M72.8481 148.162C72.8158 148.041 72.7986 147.916 72.7969 147.791C72.7981 147.511 72.8819 147.239 73.0377 147.007C73.1934 146.775 73.4142 146.595 73.6723 146.488C73.9303 146.381 74.2142 146.353 74.4881 146.407C74.7621 146.461 75.0139 146.595 75.212 146.792" stroke="black" stroke-width="0.751105" stroke-linecap="round" stroke-linejoin="round"/>
<path d="M74.477 147.27C74.4427 147.149 74.4254 147.024 74.4258 146.898C74.4271 146.619 74.5108 146.347 74.6666 146.115C74.8223 145.883 75.0431 145.702 75.3012 145.596C75.5592 145.489 75.8431 145.461 76.117 145.515C76.391 145.569 76.6428 145.703 76.8409 145.9" stroke="black" stroke-width="0.751105" stroke-linecap="round" stroke-linejoin="round"/>
<path d="M76.2891 146.22C76.2583 146.098 76.2426 145.974 76.2422 145.848C76.2423 145.569 76.3252 145.296 76.4804 145.064C76.6356 144.832 76.8561 144.651 77.1141 144.544C77.3722 144.437 77.6561 144.409 77.93 144.464C78.2039 144.518 78.4555 144.653 78.653 144.85" stroke="black" stroke-width="0.751105" stroke-linecap="round" stroke-linejoin="round"/>
<path d="M78.2231 145.132C78.1888 145.011 78.1715 144.886 78.1719 144.761C78.172 144.481 78.2549 144.208 78.4101 143.976C78.5653 143.744 78.7858 143.563 79.0438 143.456C79.3018 143.349 79.5858 143.321 79.8597 143.376C80.1336 143.43 80.3852 143.565 80.5827 143.762" stroke="black" stroke-width="0.751105" stroke-linecap="round" stroke-linejoin="round"/>
<path d="M79.2661 144.479C79.2317 144.358 79.2145 144.233 79.2148 144.108C79.2141 143.828 79.2964 143.554 79.4512 143.322C79.6061 143.089 79.8266 142.907 80.0848 142.8C80.343 142.692 80.6273 142.664 80.9016 142.718C81.1759 142.773 81.4279 142.907 81.6257 143.105" stroke="black" stroke-width="0.751105" stroke-linecap="round" stroke-linejoin="round"/>
<path d="M102.784 147.381C102.784 147.381 104.171 150.436 101.871 151.315L115.526 160.079C115.526 160.079 116.853 160.843 118.542 159.324C120.232 157.805 118.824 154.473 118.064 154.05C117.305 153.628 102.784 147.381 102.784 147.381Z" fill="#E5E5E5" stroke="black" stroke-width="0.751105" stroke-linecap="round" stroke-linejoin="round"/>
<path d="M119.897 140.43L102.232 147.21L116.364 154.891C117.105 155.4 117.722 156.069 118.169 156.849C118.251 157.047 118.315 157.251 118.361 157.459C118.445 157.848 118.414 158.253 118.271 158.624C118.128 158.995 117.879 159.317 117.556 159.548C117.232 159.78 116.848 159.912 116.451 159.928C116.053 159.945 115.66 159.844 115.319 159.64L101.873 151.332C101.873 151.332 100.623 151.332 102.053 152.403C103.239 153.282 112.362 158.829 115.259 160.536C115.552 160.71 115.881 160.816 116.221 160.845C116.561 160.875 116.903 160.827 117.222 160.707L136.496 152.902C136.778 152.716 137.019 152.473 137.203 152.188C137.386 151.904 137.509 151.585 137.563 151.251C137.675 150.585 137.564 149.901 137.247 149.305C136.93 148.709 136.424 148.235 135.809 147.957L119.897 140.43Z" fill="black" stroke="black" stroke-width="0.751105" stroke-linecap="round" stroke-linejoin="round"/>
<mask id="mask0_1063_6570" style="mask-type:luminance" maskUnits="userSpaceOnUse" x="12" y="31" width="44" height="111">
<path d="M55.3681 31.0488H12.8047V141.39H55.3681V31.0488Z" fill="white"/>
</mask>
<g mask="url(#mask0_1063_6570)">
<path d="M22.1782 54.2697L19.5625 46.7982L22.1782 49.9729L20.1215 38.7677L23.3004 46.7982L24.4184 31.1084L26.2873 46.0515L28.344 43.0603V46.7982L30.7719 41.7546L29.462 50.5361L31.7064 49.0427L28.1563 53.8985L22.1782 54.2697Z" fill="#C637FA"/>
<path d="M30.3992 52.4048H20.6875L22.4327 72.016H28.654L30.3992 52.4048Z" fill="black" stroke="black" stroke-width="0.751105" stroke-linecap="round" stroke-linejoin="round"/>
<path d="M48.6141 71.79H15.5234V141.884H48.6141V71.79Z" fill="#E5E5E5" stroke="black" stroke-width="0.751105" stroke-linecap="round" stroke-linejoin="round"/>
<path d="M50.4313 71.79H32.0703V141.884H50.4313V71.79Z" fill="#E5E5E5" stroke="black" stroke-width="0.751105" stroke-linecap="round" stroke-linejoin="round"/>
<path d="M48.3618 71.79H32.0703V141.884H48.3618V71.79Z" fill="black" stroke="black" stroke-width="0.751105" stroke-linecap="round" stroke-linejoin="round"/>
<path d="M46.5312 125.593H32.0703V139.947H46.5312V125.593Z" fill="#C637FA" stroke="black" stroke-width="0.751105" stroke-linecap="round" stroke-linejoin="round"/>
<path d="M46.5312 126.37H32.0703V128.209H46.5312V126.37Z" fill="#E5E5E5" stroke="black" stroke-width="0.751105" stroke-linecap="round" stroke-linejoin="round"/>
<path d="M46.5312 136.935H32.0703V138.774H46.5312V136.935Z" fill="#E5E5E5" stroke="black" stroke-width="0.751105" stroke-linecap="round" stroke-linejoin="round"/>
<path d="M34.8125 125.887V144.039" stroke="black" stroke-width="0.751105" stroke-linecap="round" stroke-linejoin="round"/>
<path d="M39.8555 125.887V144.039" stroke="black" stroke-width="0.751105" stroke-linecap="round" stroke-linejoin="round"/>
<path d="M44.2812 125.887V144.039" stroke="black" stroke-width="0.751105" stroke-linecap="round" stroke-linejoin="round"/>
<path d="M46.5312 74.3975H32.0703V95.5021H46.5312V74.3975Z" fill="#C637FA" stroke="black" stroke-width="0.751105" stroke-linecap="round" stroke-linejoin="round"/>
<path d="M46.5312 75.2808H32.0703V77.3716H46.5312V75.2808Z" fill="#E5E5E5" stroke="black" stroke-width="0.751105" stroke-linecap="round" stroke-linejoin="round"/>
<path d="M46.5312 88.8071H32.0703V90.898H46.5312V88.8071Z" fill="#E5E5E5" stroke="black" stroke-width="0.751105" stroke-linecap="round" stroke-linejoin="round"/>
<path d="M34.8125 74.7344V95.3568" stroke="black" stroke-width="0.751105" stroke-linecap="round" stroke-linejoin="round"/>
<path d="M39.8555 74.7344V95.3568" stroke="black" stroke-width="0.751105" stroke-linecap="round" stroke-linejoin="round"/>
<path d="M44.2812 74.7344V95.3568" stroke="black" stroke-width="0.751105" stroke-linecap="round" stroke-linejoin="round"/>
<path d="M46.5312 99.833H32.0703V120.938H46.5312V99.833Z" fill="#C637FA" stroke="black" stroke-width="0.751105" stroke-linecap="round" stroke-linejoin="round"/>
<path d="M46.5312 100.716H32.0703V102.807H46.5312V100.716Z" fill="#E5E5E5" stroke="black" stroke-width="0.751105" stroke-linecap="round" stroke-linejoin="round"/>
<path d="M46.5312 114.247H32.0703V116.338H46.5312V114.247Z" fill="#E5E5E5" stroke="black" stroke-width="0.751105" stroke-linecap="round" stroke-linejoin="round"/>
<path d="M34.8125 100.17V120.792" stroke="black" stroke-width="0.751105" stroke-linecap="round" stroke-linejoin="round"/>
<path d="M39.8555 100.17V120.792" stroke="black" stroke-width="0.751105" stroke-linecap="round" stroke-linejoin="round"/>
<path d="M44.2812 100.17V120.792" stroke="black" stroke-width="0.751105" stroke-linecap="round" stroke-linejoin="round"/>
<path d="M48.6178 95.2119H32.0703V97.61H48.6178V95.2119Z" fill="#E5E5E5" stroke="black" stroke-width="0.751105" stroke-linecap="round" stroke-linejoin="round"/>
<path d="M48.6178 120.81H32.0703V123.208H48.6178V120.81Z" fill="#E5E5E5" stroke="black" stroke-width="0.751105" stroke-linecap="round" stroke-linejoin="round"/>
<path d="M48.6172 71.79V141.884" stroke="black" stroke-width="0.751105" stroke-linecap="round" stroke-linejoin="round"/>
<path d="M29.7422 71.7898V141.884H32.072V74.3969H48.3336V71.7642L29.7422 71.7898Z" fill="#E5E5E5" stroke="black" stroke-width="0.751105" stroke-linecap="round" stroke-linejoin="round"/>
<path d="M32.0703 74.3972V71.79" stroke="black" stroke-width="0.751105" stroke-linecap="round" stroke-linejoin="round"/>
</g>
<path d="M191.061 141.493H1.92188" stroke="black" stroke-width="0.751105" stroke-linecap="round" stroke-linejoin="round"/>
<path d="M99.9817 112.938H70.4113C66.7417 112.656 66.5198 114.116 66.5198 114.116L60.9727 141.506H97.4812C97.6732 140.136 100.553 119.88 101.095 116.608C101.663 113.22 99.9817 112.938 99.9817 112.938Z" fill="#E5E5E5" stroke="black" stroke-width="0.751105" stroke-linecap="round" stroke-linejoin="round"/>
<path d="M99.98 112.938H99.9246C99.7112 112.938 98.9133 113.151 98.4269 115.336C97.9404 117.521 95.1626 136.296 94.3945 141.506H97.4924C97.6844 140.136 100.565 119.88 101.107 116.608C101.661 113.22 99.98 112.938 99.98 112.938Z" fill="black" stroke="black" stroke-width="0.751105" stroke-linecap="round" stroke-linejoin="round"/>
<path d="M52.0321 141.506H86.4455C86.2663 136.125 85.5921 116.723 85.0801 114.316C84.4912 111.517 83.0191 111.078 80.9582 110.928C78.8972 110.779 77.3653 111.312 73.2434 111.312C69.1215 111.312 65.1361 110.886 65.1361 110.886C65.1361 110.886 63.5189 110.736 62.6356 110.736C61.7523 110.736 61.1635 111.325 59.9858 111.325C57.8711 111.352 55.7566 111.254 53.6535 111.031C51.4432 110.736 48.7934 111.914 48.3539 114.124C47.9699 116.044 47.0738 136.424 46.8477 141.676H52.0235L52.0321 141.506Z" fill="#C637FA" stroke="black" stroke-width="0.751105" stroke-linecap="round" stroke-linejoin="round"/>
<path d="M61.9688 113.894C61.9688 113.894 63.1849 119.731 66.5857 121.186" stroke="black" stroke-width="0.751105" stroke-linecap="round" stroke-linejoin="round"/>
<path d="M58.8077 112.921C58.8077 112.921 57.1009 116.569 59.5374 121.916" stroke="black" stroke-width="0.751105" stroke-linecap="round" stroke-linejoin="round"/>
<path d="M78.9859 120.461C78.9859 120.461 75.0986 130.424 66.5859 135.046" stroke="black" stroke-width="0.751105" stroke-linecap="round" stroke-linejoin="round"/>
<path d="M62.9375 107.485C62.9375 107.485 63.2319 111.607 63.6714 113.962C64.1109 116.318 66.6157 117.803 69.4148 116.906C72.214 116.01 73.3874 114.112 73.5368 112.785C73.6861 111.457 73.6818 106.457 73.6818 106.457C73.6818 106.457 69.2569 109.401 62.9375 107.485Z" fill="#E5E5E5" stroke="black" stroke-width="0.751105" stroke-linecap="round" stroke-linejoin="round"/>
<path d="M78.0426 84.0332C78.0426 84.0332 78.4437 83.4998 77.377 81.8997C76.3102 80.2996 73.7756 79.2328 73.7756 79.2328L75.3757 81.3663C75.3757 81.3663 70.8442 78.9683 68.9752 78.9683C67.1063 78.9683 62.4296 79.6339 62.4296 79.6339L64.6954 80.1673C64.6954 80.1673 59.0971 81.8997 58.4314 82.6976C57.7658 83.4956 54.5655 86.1667 55.2312 86.1667C55.8968 86.1667 59.2294 85.6333 59.2294 85.6333C59.2294 85.6333 55.8968 88.8336 55.8968 90.1649C55.8968 91.4962 58.8283 97.8967 58.8283 97.8967C58.8283 97.8967 60.8295 101.498 61.4952 99.7614C62.1608 98.0247 61.0941 93.8985 61.2306 93.4974C61.3671 93.0963 69.0947 92.4307 70.8271 92.4307C72.5595 92.4307 72.295 96.5654 72.9606 97.2311C73.6263 97.8967 76.8436 99.0915 77.3642 99.0915C77.8848 99.0915 78.832 98.6947 78.832 98.1613C78.8649 97.0195 79.09 95.8915 79.4977 94.8245C80.0311 93.4889 80.6967 92.2899 80.829 90.6897C80.9613 89.0896 80.0311 85.4925 80.0311 85.4925H81.2301C81.2301 85.4925 80.0439 83.4998 78.0426 84.0332Z" fill="black" stroke="black" stroke-width="0.751105" stroke-linecap="round" stroke-linejoin="round"/>
<path d="M59.5166 96.958C59.5166 96.958 58.8467 94.4277 57.6477 96.1601C56.8753 97.278 58.8467 101.758 59.9134 102.027C60.9802 102.296 59.5166 96.958 59.5166 96.958Z" fill="#E5E5E5" stroke="black" stroke-width="0.751105" stroke-linecap="round" stroke-linejoin="round"/>
<path d="M59.5156 91.8972C59.5156 91.8972 59.5156 101.63 60.1813 104.028C60.8469 106.426 63.5138 110.028 67.3797 110.028C71.2456 110.028 73.9125 108.027 74.9793 106.563C76.046 105.099 76.5751 102.164 76.5751 102.164C76.5751 102.164 77.7784 103.098 79.242 101.361C80.7056 99.6248 80.919 96.544 80.3088 96.1642C79.242 95.4986 78.043 96.2965 77.5096 96.8299L76.4429 97.8966C76.4429 97.8966 74.7105 96.6976 74.7105 95.0975C74.7105 93.4973 74.9793 90.5659 74.9793 90.5659L73.776 91.3638L73.9125 90.2971C73.9125 90.2971 73.6437 90.5659 72.0436 90.5659C70.4434 90.5659 66.5775 90.8305 66.5775 90.8305L68.5788 88.1636C68.5788 88.1636 64.7128 89.9002 63.3815 90.6982C62.0502 91.4961 59.5156 91.8972 59.5156 91.8972Z" fill="#E5E5E5" stroke="black" stroke-width="0.751105" stroke-linecap="round" stroke-linejoin="round"/>
<path d="M64.5223 97.7392C64.5223 98.4603 64.2364 99.0491 63.8822 99.0491C63.5281 99.0491 63.2422 98.4603 63.2422 97.7392C63.2422 97.018 63.5281 96.4292 63.8822 96.4292C64.2364 96.4292 64.5223 97.018 64.5223 97.7392Z" fill="black"/>
<path d="M70.6942 97.9179C70.6942 98.639 70.4083 99.2236 70.0541 99.2236C69.7 99.2236 69.4141 98.639 69.4141 97.9179C69.4141 97.1968 69.7 96.6079 70.0541 96.6079C70.4083 96.6079 70.6942 97.1925 70.6942 97.9179Z" fill="black"/>
<path d="M65.5898 100.833C65.5898 100.833 65.5898 102.706 67.9111 102.258" stroke="black" stroke-width="0.751105" stroke-linecap="round" stroke-linejoin="round"/>
<path d="M64.8789 104.212C64.8789 104.212 66.7521 105.369 69.3422 104.123" stroke="black" stroke-width="0.751105" stroke-linecap="round" stroke-linejoin="round"/>
<path d="M61.5781 95.2084C61.8064 94.7931 62.1705 94.4688 62.6095 94.2901C63.0485 94.1114 63.5355 94.0891 63.989 94.227" stroke="black" stroke-width="0.751105" stroke-linecap="round" stroke-linejoin="round"/>
<path d="M68.8086 94.2274C68.8086 94.2274 70.9421 93.6044 71.7528 95.0339" stroke="black" stroke-width="0.751105" stroke-linecap="round" stroke-linejoin="round"/>
<path d="M48.6162 113.275L42.7021 129.563C42.7021 129.563 38.913 132.315 38.5076 133.027C37.4878 134.807 38.8149 137.333 40.0395 138.651C41.9682 140.721 45.8896 141.015 48.2364 139.479C49.7768 138.472 50.6814 136.424 51.2617 134.738L51.8847 120.427" fill="#C637FA"/>
<path d="M48.6162 113.275L42.7021 129.563C42.7021 129.563 38.913 132.315 38.5076 133.027C37.4878 134.807 38.8149 137.333 40.0395 138.651C41.9682 140.721 45.8896 141.015 48.2364 139.479C49.7768 138.472 50.6814 136.424 51.2617 134.738L51.8847 120.427" stroke="black" stroke-width="0.751105" stroke-linecap="round" stroke-linejoin="round"/>
<path d="M40.1445 130.992C40.1445 130.992 43.1784 128.496 48.175 131.35" stroke="black" stroke-width="0.751105" stroke-linecap="round" stroke-linejoin="round"/>
<path d="M42.7616 132.212L46.7684 133.066C46.7684 133.066 50.6087 131.5 50.9458 133.241C51.2829 134.981 48.6843 135.506 47.9845 135.506C47.2847 135.506 45.548 135.331 44.8525 135.506C44.157 135.681 43.2865 136.547 41.7205 136.722C41.7205 136.722 37.3681 138.463 35.6272 137.418C33.8863 136.373 35.2773 132.724 37.5431 131.5C39.8089 130.275 42.7616 132.212 42.7616 132.212Z" fill="#E5E5E5" stroke="black" stroke-width="0.751105" stroke-linecap="round" stroke-linejoin="round"/>
<path d="M33.8413 133.501C33.8413 133.501 32.1345 132.485 31.5968 133.778C31.0592 135.071 29.4932 138.071 30.4703 137.802C31.4475 137.533 33.8413 133.501 33.8413 133.501Z" fill="#E5E5E5" stroke="black" stroke-width="0.751105" stroke-linecap="round" stroke-linejoin="round"/>
<path d="M36.5001 131.692C36.5001 131.692 33.6924 131.389 33.3639 132.212C32.7579 133.744 31.9728 137.96 33.1932 138.306C34.4136 138.651 34.7592 136.044 35.4547 134.465C35.8604 133.563 36.2096 132.637 36.5001 131.692Z" fill="#E5E5E5" stroke="black" stroke-width="0.751105" stroke-linecap="round" stroke-linejoin="round"/>
<path d="M38.0661 129.95C38.0661 129.95 35.9753 129.775 35.2797 131.171C34.5842 132.566 34.1788 138.143 34.853 138.143C35.5272 138.143 35.3565 138.693 36.402 136.436C36.914 135.331 37.6821 131.696 37.6821 131.696L38.0661 129.95Z" fill="#E5E5E5" stroke="black" stroke-width="0.751105" stroke-linecap="round" stroke-linejoin="round"/>
<path d="M43.2689 132.686C43.2689 132.686 40.4953 130.322 39.7657 129.916C39.036 129.511 38.541 129.345 37.726 130.079C36.911 130.813 36.7489 133.42 36.1003 135.05C35.4517 136.68 34.7946 138.386 35.6096 138.386C36.4246 138.386 37.1585 137.981 37.8071 137.106C38.4557 136.232 39.6846 133.031 39.6846 133.031" fill="#E5E5E5"/>
<path d="M43.2689 132.686C43.2689 132.686 40.4953 130.322 39.7657 129.916C39.036 129.511 38.541 129.345 37.726 130.079C36.911 130.813 36.7489 133.42 36.1003 135.05C35.4517 136.68 34.7946 138.386 35.6096 138.386C36.4246 138.386 37.1585 137.981 37.8071 137.106C38.4557 136.232 39.6846 133.031 39.6846 133.031" stroke="black" stroke-width="0.751105" stroke-linecap="round" stroke-linejoin="round"/>
<path d="M39.2734 134.64C39.2734 134.64 40.2506 135.066 41.6374 134.149L39.2734 134.64Z" fill="#E5E5E5"/>
<path d="M39.2734 134.64C39.2734 134.64 40.2506 135.066 41.6374 134.149" stroke="black" stroke-width="0.751105" stroke-linecap="round" stroke-linejoin="round"/>
<path d="M80.2773 110.813C80.2773 110.813 83.6099 110.173 85.2271 111.794C86.8443 113.416 91.4996 125.577 93.121 129.716C94.7425 133.855 96.3597 136.782 95.9159 138.843C95.4722 140.904 92.0756 141.638 89.588 141.787C86.7589 141.954 84.8942 140.166 84.8942 139.577C84.8942 138.988 83.8616 137.665 85.7775 133.1L84.4505 123.384" fill="#C637FA"/>
<path d="M80.2773 110.813C80.2773 110.813 83.6099 110.173 85.2271 111.794C86.8443 113.416 91.4996 125.577 93.121 129.716C94.7425 133.855 96.3597 136.782 95.9159 138.843C95.4722 140.904 92.0756 141.638 89.588 141.787C86.7589 141.954 84.8942 140.166 84.8942 139.577C84.8942 138.988 83.8616 137.665 85.7775 133.1L84.4505 123.384" stroke="black" stroke-width="0.751105" stroke-linecap="round" stroke-linejoin="round"/>
<path d="M88.9722 133.757C88.9722 133.757 86.173 132.541 85.7036 132.541C85.3109 133.016 85.0819 133.606 85.0508 134.222C85.0508 135.156 85.1447 138.984 85.6098 139.171C86.0749 139.359 87.4787 138.519 88.4132 137.213C89.3477 135.907 89.5311 134.034 88.9722 133.757Z" fill="#E5E5E5" stroke="black" stroke-width="0.751105" stroke-linecap="round" stroke-linejoin="round"/>
<path d="M86.9194 128.534L85.332 141.407L85.8995 143.468L86.834 141.693L88.5152 128.713C88.5381 128.504 88.4773 128.294 88.3463 128.129C88.2152 127.965 88.0244 127.859 87.8154 127.834C87.7104 127.82 87.6036 127.826 87.5013 127.854C87.399 127.882 87.3033 127.93 87.2198 127.995C87.1363 128.06 87.0667 128.141 87.0151 128.234C86.9635 128.326 86.9309 128.428 86.9194 128.534Z" fill="#E5E5E5" stroke="black" stroke-width="0.751105" stroke-linecap="round" stroke-linejoin="round"/>
<path d="M86.8255 141.693L85.332 141.412L85.891 143.468L86.8255 141.693Z" fill="#E5E5E5" stroke="black" stroke-width="0.751105" stroke-linecap="round" stroke-linejoin="round"/>
<path d="M87.8072 127.834C87.7025 127.821 87.5963 127.829 87.4948 127.858C87.3932 127.886 87.2983 127.934 87.2157 128C87.133 128.066 87.0643 128.147 87.0135 128.239C86.9626 128.332 86.9308 128.433 86.9197 128.538L86.7148 130.202L88.2723 130.514L88.507 128.713C88.5298 128.504 88.4691 128.294 88.338 128.13C88.207 127.965 88.0162 127.859 87.8072 127.834Z" fill="#E5E5E5" stroke="black" stroke-width="0.751105" stroke-linecap="round" stroke-linejoin="round"/>
<path d="M85.7029 132.541C85.2378 132.541 84.3033 133.757 83.7444 134.409C83.1854 135.062 83.3689 136.462 83.834 137.584C84.2991 138.706 84.4911 140.759 85.0501 140.853C85.609 140.947 86.0784 140.388 86.0784 139.359C86.0784 138.331 85.8907 136.185 85.8907 136.185" fill="#E5E5E5"/>
<path d="M85.7029 132.541C85.2378 132.541 84.3033 133.757 83.7444 134.409C83.1854 135.062 83.3689 136.462 83.834 137.584C84.2991 138.706 84.4911 140.759 85.0501 140.853C85.609 140.947 86.0784 140.388 86.0784 139.359C86.0784 138.331 85.8907 136.185 85.8907 136.185" stroke="black" stroke-width="0.751105" stroke-linecap="round" stroke-linejoin="round"/>
<path d="M91.9579 139.171C91.9579 139.171 92.615 140.946 91.8683 141.881C91.1216 142.815 88.6893 142.44 88.2242 142.069C87.7591 141.697 90.2809 141.04 91.9579 139.171Z" fill="#E5E5E5" stroke="black" stroke-width="0.751105" stroke-linecap="round" stroke-linejoin="round"/>
<path d="M91.6835 137.494C91.9315 137.768 92.0977 138.106 92.1634 138.469C92.229 138.833 92.1914 139.208 92.0548 139.551C91.5897 140.763 89.9212 141.791 88.6923 141.979C87.4634 142.167 86.4522 141.509 87.0154 141.125C87.5787 140.741 90.3736 138.894 91.6835 137.494Z" fill="#E5E5E5" stroke="black" stroke-width="0.751105" stroke-linecap="round" stroke-linejoin="round"/>
<path d="M90.5618 135.438C90.5618 135.438 91.684 136.462 91.684 137.49C91.684 138.518 88.9744 140.946 87.6687 141.412C86.363 141.877 85.7059 141.412 86.0814 140.558C86.4569 139.705 90.1905 135.519 90.1905 135.519C90.1905 135.519 90.0028 135.25 90.5618 135.438Z" fill="#E5E5E5" stroke="black" stroke-width="0.751105" stroke-linecap="round" stroke-linejoin="round"/>
<path d="M87.3857 135.438C87.3857 135.438 85.3333 138.983 85.0517 140.106C84.77 141.228 85.7984 141.228 86.4512 140.759C87.1041 140.289 90.1891 136.556 90.5604 135.438C90.9316 134.32 90.283 133.104 89.0669 133.304C87.8508 133.505 87.3857 135.438 87.3857 135.438Z" fill="#E5E5E5" stroke="black" stroke-width="0.751105" stroke-linecap="round" stroke-linejoin="round"/>
<path d="M161.359 141.484C161.965 137.063 164.393 119.346 164.888 116.389C165.451 113.001 163.757 112.72 163.757 112.72H134.2C130.53 112.438 130.308 113.897 130.308 113.897L124.906 141.484H161.359Z" fill="#E5E5E5" stroke="black" stroke-width="0.751105" stroke-linecap="round" stroke-linejoin="round"/>
<path d="M161.355 141.484C161.961 137.063 164.389 119.346 164.884 116.389C165.447 113.001 163.753 112.72 163.753 112.72H163.698C163.484 112.72 162.686 112.933 162.204 115.118C161.743 117.187 159.187 135.173 158.266 141.484H161.355Z" fill="black" stroke="black" stroke-width="0.751105" stroke-linecap="round" stroke-linejoin="round"/>
<path d="M101.107 141.484C103.36 139.017 110.541 131.166 112.355 129.348C114.518 127.185 116.165 125.128 116.165 125.128L116.784 141.484H151.057C151.018 141.262 149.085 128.964 147.455 120.499C145.808 111.965 144.161 103.823 140.457 98.6772C136.754 93.5311 125.736 88.2827 125.736 88.2827L116.268 95.6774C116.268 95.6774 113.49 98.9716 112.666 102.163C111.843 105.355 109.782 113.484 108.856 116.671C108.002 119.594 97.4885 138.348 95.7305 141.467L101.107 141.484Z" fill="#C637FA" stroke="black" stroke-width="0.751105" stroke-linecap="round" stroke-linejoin="round"/>
<path d="M139.793 113.287C141.619 122.017 143.228 130.048 144.913 138.561" stroke="black" stroke-width="0.751105" stroke-linecap="round" stroke-linejoin="round"/>
<path d="M132.18 115.826C133.592 123.08 134.663 131.119 136.063 138.595" stroke="black" stroke-width="0.751105" stroke-linecap="round" stroke-linejoin="round"/>
<path d="M123.879 100.127C125.04 112.928 126.106 125.764 127.574 138.531" stroke="black" stroke-width="0.751105" stroke-linecap="round" stroke-linejoin="round"/>
<path d="M116.246 103.592C117.526 115.591 118.601 126.835 120.112 138.603" stroke="black" stroke-width="0.751105" stroke-linecap="round" stroke-linejoin="round"/>
<path d="M113.476 106.131C113.476 106.131 110.016 121.599 108.168 125.76" stroke="black" stroke-width="0.751105" stroke-linecap="round" stroke-linejoin="round"/>
<path d="M114.398 117.904C114.398 117.904 112.324 126.438 110.707 129.676" stroke="black" stroke-width="0.751105" stroke-linecap="round" stroke-linejoin="round"/>
<path d="M125.941 92.7417L131.25 96.4327" stroke="black" stroke-width="0.751105" stroke-linecap="round" stroke-linejoin="round"/>
<path d="M116.164 125.128L114.414 111.132" stroke="black" stroke-width="0.751105" stroke-linecap="round" stroke-linejoin="round"/>
<path d="M101.106 141.484C103.24 139.141 109.815 131.955 112 129.711C110.174 128.516 107.059 126.485 104.861 125.09C101.699 131.226 96.8989 139.495 95.7383 141.484H101.106Z" fill="#E5E5E5" stroke="black" stroke-width="0.751105" stroke-linecap="round" stroke-linejoin="round"/>
<path d="M103.398 127.804C103.398 127.804 109.372 132.126 109.884 132.126C110.396 132.126 113.383 129.139 113.588 128.525C113.793 127.91 106.385 122.862 105.959 122.862C105.532 122.862 103.398 126.366 103.398 127.804Z" fill="#E5E5E5" stroke="black" stroke-width="0.751105" stroke-linecap="round" stroke-linejoin="round"/>
<path d="M117.711 98.9839L118.739 109.792L120.591 109.383L120.386 107.014" stroke="black" stroke-width="0.751105" stroke-linecap="round" stroke-linejoin="round"/>
<path d="M113.383 97.4395L112.867 101.66L116.678 97.7509L113.383 97.4395Z" fill="#E5E5E5" stroke="black" stroke-width="0.751105" stroke-linecap="round" stroke-linejoin="round"/>
<path d="M115.546 93.9404L113.387 97.4394L119.254 99.7052L120.897 95.3827L115.546 93.9404Z" fill="#E5E5E5" stroke="black" stroke-width="0.751105" stroke-linecap="round" stroke-linejoin="round"/>
<path d="M100.006 70.267C100.006 70.267 99.1825 75.5197 99.4897 76.548C99.7969 77.5764 101.137 78.8138 101.239 79.7398C101.342 80.6657 98.8752 83.8532 99.5921 84.6767C100.309 85.5002 101.858 86.1189 101.858 86.1189C101.858 86.1189 104.947 94.2519 106.385 94.5591C107.823 94.8663 112.461 92.4 112.461 92.4C112.461 92.4 118.222 97.6484 118.533 97.9471C118.845 98.2458 124.605 86.6267 124.605 86.6267C124.605 86.6267 122.045 81.5831 122.045 81.2716C122.045 80.9601 126.06 69.9512 125.851 65.5263C125.642 61.1015 112.986 56.779 110.413 57.1886C107.84 57.5982 102.387 60.6022 102.387 60.6022C102.387 60.6022 104.341 58.9551 102.694 59.0576C101.047 59.16 96.1059 62.868 96.315 66.0555C96.5241 69.2429 100.006 70.267 100.006 70.267Z" fill="#E5E5E5" stroke="black" stroke-width="0.751105" stroke-linecap="round" stroke-linejoin="round"/>
<path d="M117.609 87.0448C118.637 84.1645 116.371 78.707 116.576 77.4739C116.781 76.2407 117.813 73.2538 119.665 73.2538C121.517 73.2538 121.21 76.9576 121.005 78.5022C120.809 79.5916 120.425 80.6384 119.87 81.5958C119.87 81.5958 121.082 81.3782 122.042 81.2288C122.277 80.3029 126.04 69.8274 125.84 65.539C125.635 61.1141 112.975 56.7917 110.402 57.2013C107.829 57.6109 102.375 60.6149 102.375 60.6149C102.375 60.6149 104.33 58.9678 102.683 59.0703C101.035 59.1727 96.0942 62.8807 96.3033 66.0682C96.5124 69.2556 100.007 70.2882 100.007 70.2882C100.007 70.2882 106.595 66.9984 108.968 66.6869C111.34 66.3754 108.251 68.9527 108.042 70.3949C107.833 71.8372 111.455 72.9551 112.778 74.2011C114.101 75.447 114.937 83.3624 114.118 85.2142C113.299 87.0661 109.382 86.1402 107.53 85.4191C105.678 84.6979 101.868 86.1402 101.868 86.1402C101.868 86.1402 104.957 94.2731 106.395 94.5803C107.184 94.751 108.925 94.0854 110.342 93.4538L112.475 92.4212C112.475 92.4212 116.576 89.9293 117.609 87.0448Z" fill="black" stroke="black" stroke-width="0.751105" stroke-linecap="round" stroke-linejoin="round"/>
<path d="M104.418 79.5267C104.58 80.1881 104.512 80.7727 104.264 80.8367C104.017 80.9007 103.68 80.41 103.518 79.7443C103.355 79.0786 103.424 78.4983 103.671 78.4343C103.919 78.3703 104.252 78.861 104.418 79.5267Z" fill="black"/>
<path d="M103.398 87.9713C103.398 87.9713 105.455 87.9713 106.59 86.3242" stroke="#C1C1C1" stroke-width="0.751105" stroke-linecap="round" stroke-linejoin="round"/>
<path d="M101.754 76.9575C101.754 76.9575 102.061 75.5195 104.634 76.5308" stroke="black" stroke-width="1.50221" stroke-linecap="round" stroke-linejoin="round"/>
<path d="M124.19 84.8857L117.09 98.7791L120.896 103.516L127.382 88.1799L124.19 84.8857Z" fill="#E5E5E5" stroke="black" stroke-width="0.751105" stroke-linecap="round" stroke-linejoin="round"/>
<path d="M132.529 97.337C132.529 97.337 129.337 96.9103 128.104 97.8533C126.871 98.7963 120.59 113.599 120.59 113.599C122.466 114.142 124.146 115.215 125.429 116.688C127.383 119.056 128.842 123.276 128.842 123.276C128.842 123.276 137.18 113.087 138.72 110.821" fill="#C637FA"/>
<path d="M132.529 97.337C132.529 97.337 129.337 96.9103 128.104 97.8533C126.871 98.7963 120.59 113.599 120.59 113.599C122.466 114.142 124.146 115.215 125.429 116.688C127.383 119.056 128.842 123.276 128.842 123.276C128.842 123.276 137.18 113.087 138.72 110.821" stroke="black" stroke-width="0.751105" stroke-linecap="round" stroke-linejoin="round"/>
<path d="M133.102 99.436C133.102 99.436 130.332 99.6665 129.406 101.284C128.48 102.901 121.32 117.673 121.32 117.673L124.307 120.212C124.307 120.212 130.541 107.053 132.389 104.744C133.6 103.315 135.206 102.276 137.006 101.757" stroke="black" stroke-width="0.751105" stroke-linecap="round" stroke-linejoin="round"/>
<path d="M137.488 106.362L127.328 120.443" stroke="black" stroke-width="0.751105" stroke-linecap="round" stroke-linejoin="round"/>
<path d="M119.043 112.882C119.043 112.882 116.266 114.631 116.266 116.586C116.266 118.54 118.736 122.986 121.412 125.12C124.087 127.253 126.455 126.664 127.812 125.738C129.169 124.812 132.442 124.296 132.647 120.592C132.851 116.889 127.812 111.534 125.649 110.812C123.485 110.091 119.043 112.882 119.043 112.882Z" fill="#E5E5E5" stroke="black" stroke-width="0.751105" stroke-linecap="round" stroke-linejoin="round"/>
<path d="M73.7566 125.12C73.7566 125.12 72.6259 126.148 71.4909 126.972C70.3558 127.795 69.1269 128.414 70.1553 128.93C71.1836 129.446 72.3144 129.033 73.4494 128.823C74.5844 128.614 75.92 128.311 76.0096 127.488C76.0992 126.664 75.92 124.202 73.7566 125.12Z" fill="#E5E5E5" stroke="black" stroke-width="0.751105" stroke-linecap="round" stroke-linejoin="round"/>
<path d="M126.149 124.719C126.149 124.719 127.796 121.834 126.252 118.954C124.707 116.074 121.72 114.734 119.851 114.734C117.982 114.734 86.4021 123.584 86.4021 123.584C86.4021 123.584 76.8312 120.908 75.6961 121.322C74.5611 121.736 67.7723 125.436 66.2276 126.157C64.683 126.878 64.683 127.804 65.4041 127.906C66.1252 128.009 67.9643 127.394 68.9031 127.083C69.8418 126.771 72.9183 125.645 72.9183 125.645C72.6594 126.383 72.4526 127.139 72.2996 127.906C72.2996 128.333 75.1841 129.865 75.7132 129.865C76.2423 129.865 77.979 130.172 79.2122 129.762C80.4453 129.353 78.7001 127.599 78.7001 127.599L80.8592 126.673C80.8592 126.673 83.0226 127.804 84.8745 127.701C85.8764 127.679 86.8605 127.433 87.7547 126.98C87.7547 126.98 121.208 126.054 126.149 124.719Z" fill="#E5E5E5" stroke="black" stroke-width="0.751105" stroke-linecap="round" stroke-linejoin="round"/>
<path d="M74.8047 124.718C74.8047 124.718 73.4691 127.278 73.7764 127.803C74.0836 128.328 76.7633 129.762 76.7633 129.762" stroke="black" stroke-width="0.751105" stroke-linecap="round" stroke-linejoin="round"/>
<path d="M76.9389 124.821C76.9389 124.821 75.5991 127.381 76.013 127.906C76.4269 128.431 79.2004 129.762 79.2004 129.762" stroke="black" stroke-width="0.751105" stroke-linecap="round" stroke-linejoin="round"/>
<path d="M72.9336 125.644L73.1384 124.718" stroke="black" stroke-width="0.751105" stroke-linecap="round" stroke-linejoin="round"/>
<path d="M70.6572 141.194H36.1712L23.0117 148.303H59.1405L70.6572 141.194Z" fill="#E5E5E5" stroke="black" stroke-width="0.751105" stroke-linecap="round" stroke-linejoin="round"/>
<path d="M38.4297 143.054H63.891" stroke="black" stroke-width="0.751105" stroke-linecap="round" stroke-linejoin="round"/>
<path d="M36.5742 144.377H62.0355" stroke="black" stroke-width="0.751105" stroke-linecap="round" stroke-linejoin="round"/>
<path d="M34.7109 145.704H60.1765" stroke="black" stroke-width="0.751105" stroke-linecap="round" stroke-linejoin="round"/>
<path d="M64.0228 143.054L56.7305 146.634" stroke="black" stroke-width="0.751105" stroke-linecap="round" stroke-linejoin="round"/>
<path d="M60.0423 143.054L52.75 146.634" stroke="black" stroke-width="0.751105" stroke-linecap="round" stroke-linejoin="round"/>
<path d="M16.8438 123.499H52.9768L59.1426 148.303H23.0139L16.8438 123.499Z" fill="black" stroke="black" stroke-width="0.751105" stroke-linecap="round" stroke-linejoin="round"/>
<path d="M23.0076 150.065H59.1406V148.303H23.0076V150.065Z" fill="#E5E5E5" stroke="black" stroke-width="0.751105" stroke-linecap="round" stroke-linejoin="round"/>
<path d="M16.4414 123.499H52.5745L58.7446 148.303H22.6115L16.4414 123.499Z" fill="#E5E5E5" stroke="black" stroke-width="0.751105" stroke-linecap="round" stroke-linejoin="round"/>
<path d="M59.1406 148.303L70.6573 141.194V142.653L59.1406 150.065V148.303Z" fill="black" stroke="black" stroke-width="0.751105" stroke-linecap="round" stroke-linejoin="round"/>
<path d="M39.1638 135.148C39.2207 135.517 39.1689 135.896 39.0149 136.237C38.8609 136.578 38.6111 136.867 38.296 137.069C37.9809 137.271 37.6139 137.377 37.2396 137.374C36.8654 137.372 36.5 137.26 36.1877 137.054C35.8755 136.848 35.6298 136.555 35.4806 136.212C35.3314 135.869 35.285 135.49 35.3471 135.121C35.4092 134.752 35.5771 134.408 35.8305 134.133C36.0838 133.858 36.4117 133.661 36.7742 133.569C37.3003 133.463 37.8469 133.569 38.2946 133.865C38.7423 134.161 39.0548 134.622 39.1638 135.148Z" stroke="black" stroke-width="0.751105" stroke-linecap="round" stroke-linejoin="round"/>
</svg>
