<svg width="19" height="20" viewBox="0 0 19 20" fill="none" xmlns="http://www.w3.org/2000/svg">
<g clip-path="url(#clip0_1366_7127)">
<path d="M9.50788 19.2741C14.7331 19.2741 18.9689 15.0382 18.9689 9.81306C18.9689 4.58789 14.7331 0.352051 9.50788 0.352051C4.28271 0.352051 0.046875 4.58789 0.046875 9.81306C0.046875 15.0382 4.28271 19.2741 9.50788 19.2741Z" fill="white"/>
<path d="M7.78526 12L10.0151 9.81002L7.78526 7.62011C7.56116 7.39999 7.56116 7.04438 7.78526 6.82425C8.00943 6.60416 8.37147 6.60416 8.59563 6.82425L11.2335 9.41493C11.4576 9.63505 11.4576 9.99066 11.2335 10.2108L8.59563 12.8015C8.37147 13.0215 8.00943 13.0215 7.78526 12.8015C7.5669 12.5813 7.56116 12.2201 7.78526 12Z" fill="#030713"/>
</g>
<defs>
<clipPath id="clip0_1366_7127">
<rect width="18.922" height="18.922" fill="white" transform="translate(0.046875 0.352051)"/>
</clipPath>
</defs>
</svg>
