<svg width="26" height="26" viewBox="0 0 26 26" fill="none" xmlns="http://www.w3.org/2000/svg">
<path d="M8.25067 23.8332C7.75161 23.8332 7.33525 23.6663 7.00158 23.3327C6.66792 22.999 6.50072 22.5826 6.5 22.0836V3.91609C6.5 3.41775 6.66719 3.00175 7.00158 2.66809C7.33597 2.33442 7.75233 2.16723 8.25067 2.1665H17.7504C18.2488 2.1665 18.6648 2.3337 18.9984 2.66809C19.3321 3.00248 19.4993 3.41884 19.5 3.91717V22.0836C19.5 22.5819 19.3332 22.9983 18.9995 23.3327C18.6658 23.6671 18.2491 23.8339 17.7493 23.8332H8.25067ZM7.58333 18.9993V22.0825C7.58333 22.2493 7.65267 22.4024 7.79133 22.5418C7.93 22.6812 8.08275 22.7506 8.24958 22.7498H17.7504C17.9165 22.7498 18.0693 22.6805 18.2087 22.5418C18.3481 22.4032 18.4174 22.2501 18.4167 22.0825V18.9993H7.58333ZM13 21.7077C13.2239 21.7077 13.4189 21.6246 13.585 21.4585C13.7511 21.2924 13.8342 21.0978 13.8342 20.8746C13.8342 20.6514 13.7511 20.4564 13.585 20.2896C13.4189 20.1228 13.2239 20.0401 13 20.0415C12.7761 20.0429 12.5811 20.126 12.415 20.2907C12.2489 20.4553 12.1658 20.6503 12.1658 20.8757C12.1658 21.101 12.2489 21.2956 12.415 21.4596C12.5811 21.6235 12.7761 21.7055 13 21.7077ZM7.58333 17.9171H18.4167V5.95817H7.58333V17.9171ZM7.58333 4.87484H18.4167V3.91609C18.4167 3.74998 18.3473 3.59723 18.2087 3.45784C18.07 3.31845 17.9169 3.24912 17.7493 3.24984H8.25067C8.08383 3.24984 7.93072 3.31917 7.79133 3.45784C7.65194 3.5965 7.58261 3.74962 7.58333 3.91717V4.87484Z" fill="#040313" fill-opacity="0.5"/>
</svg>
