<svg width="19" height="19" viewBox="0 0 19 19" fill="none" xmlns="http://www.w3.org/2000/svg">
<g clip-path="url(#clip0_1237_5156)">
<path d="M9.50788 18.9679C14.7331 18.9679 18.9689 14.7321 18.9689 9.50691C18.9689 4.28174 14.7331 0.0458984 9.50788 0.0458984C4.28271 0.0458984 0.046875 4.28174 0.046875 9.50691C0.046875 14.7321 4.28271 18.9679 9.50788 18.9679Z" fill="white"/>
<path d="M7.78526 11.6938L10.0151 9.50387L7.78526 7.31396C7.56116 7.09383 7.56116 6.73822 7.78526 6.5181C8.00943 6.298 8.37147 6.298 8.59563 6.5181L11.2335 9.10877C11.4576 9.3289 11.4576 9.68451 11.2335 9.90464L8.59563 12.4953C8.37147 12.7154 8.00943 12.7154 7.78526 12.4953C7.5669 12.2752 7.56116 11.914 7.78526 11.6938Z" fill="#030713"/>
</g>
<defs>
<clipPath id="clip0_1237_5156">
<rect width="18.922" height="18.922" fill="white" transform="translate(0.046875 0.0458984)"/>
</clipPath>
</defs>
</svg>
