<svg width="1280" height="832" viewBox="0 0 1280 832" fill="none" xmlns="http://www.w3.org/2000/svg">
<rect width="1280" height="832" fill="#0F151F"/>
<mask id="mask0_1047_44919" style="mask-type:alpha" maskUnits="userSpaceOnUse" x="0" y="0" width="1280" height="832">
<rect width="1280" height="832" fill="#0F151F"/>
</mask>
<g mask="url(#mask0_1047_44919)">
<g opacity="0.5" filter="url(#filter0_f_1047_44919)">
<path fill-rule="evenodd" clip-rule="evenodd" d="M844.678 268.405C879.108 272.481 916.353 252.672 947.504 261.58C978.45 270.43 973.876 295.713 994.127 311.143C1021.2 331.771 1092.76 341.737 1085.48 366.715C1078.16 391.846 999.683 386.965 966.735 405.144C937.044 421.526 944.956 453.283 908.055 464.608C871.014 475.977 824.522 466.614 782.966 461.546C738.928 456.175 690.296 452.54 660.171 434.376C629.918 416.134 612.414 389.002 623.203 365.213C633.639 342.203 699.562 338.143 713.964 315.765C731.044 289.226 664.942 248.893 708.138 233.242C750.878 217.757 794.408 262.453 844.678 268.405Z" fill="#FF1CA8"/>
<path fill-rule="evenodd" clip-rule="evenodd" d="M399.014 103C444.737 102.876 444.562 144.939 478.097 161.741C503.029 174.233 549.737 170.928 566.496 186.916C583.257 202.907 558.147 222.543 561.024 240.857C565.106 266.843 621.406 298.056 586.812 316.234C550.666 335.228 489.554 298.472 440.308 304.289C396.95 309.41 379.398 347.274 335.084 345.967C293.32 344.735 270.726 317.886 248.779 298.639C229.362 281.611 216.861 262.414 217.001 242.411C217.13 224.041 230.103 206.432 249.532 191.36C266.869 177.911 299.976 174.266 320.441 162.169C351.377 143.883 353.175 103.125 399.014 103Z" fill="#0095FF"/>
<path fill-rule="evenodd" clip-rule="evenodd" d="M679.138 468.011C721.054 467.253 723.557 505.763 757.308 519.109C787.558 531.07 842.839 522.14 860.797 539.842C878.42 557.213 833.889 576.634 835.703 596.384C838.218 623.774 900.27 651.19 873.159 674.445C847.809 696.189 780.923 679.887 733.679 683.896C694.032 687.259 653.444 706.112 617.912 696.099C581.118 685.732 590.661 654.789 566.301 636.732C545.201 621.092 497.172 617.648 487.076 599.12C476.95 580.538 493.181 559.386 515.969 544.369C536.961 530.535 579.225 533.604 604.286 521.877C636.4 506.848 636.534 468.782 679.138 468.011Z" fill="#6E00E4"/>
<path fill-rule="evenodd" clip-rule="evenodd" d="M400.514 334.003C436.212 334.165 465.751 346.525 499.417 352.943C545.167 361.664 619.273 353.511 633.936 378.501C649.461 404.958 572.866 422.054 555.272 448.13C542.909 466.454 569.054 489.355 548.36 505.335C527.545 521.407 484.634 521.567 450.857 528.757C413.224 536.766 379.067 550.714 338.644 549.972C292.672 549.127 239.539 544.287 212.015 524.371C184.49 504.454 197.414 476.191 202.541 451.488C206.657 431.652 221.264 413.772 238.625 396.154C255.009 379.527 272.121 362.95 300.538 352.04C329.772 340.817 364.656 333.84 400.514 334.003Z" fill="#F346AE"/>
</g>
</g>
<defs>
<filter id="filter0_f_1047_44919" x="-129.971" y="-221.971" width="1540.94" height="1245.94" filterUnits="userSpaceOnUse" color-interpolation-filters="sRGB">
<feFlood flood-opacity="0" result="BackgroundImageFix"/>
<feBlend mode="normal" in="SourceGraphic" in2="BackgroundImageFix" result="shape"/>
<feGaussianBlur stdDeviation="162.485" result="effect1_foregroundBlur_1047_44919"/>
</filter>
</defs>
</svg>
