<svg width="14" height="14" viewBox="0 0 14 14" fill="none" xmlns="http://www.w3.org/2000/svg">
<g clip-path="url(#clip0_1047_44741)">
<path d="M1.61052 2.41797H12.6976C13.22 2.41797 13.6441 2.84198 13.6441 3.36443V10.9361C13.6441 11.1871 13.5443 11.4278 13.3668 11.6053C13.1894 11.7828 12.9486 11.8826 12.6976 11.8826H1.61052C1.3595 11.8826 1.11877 11.7828 0.941274 11.6053C0.763778 11.4278 0.664063 11.1871 0.664062 10.9361V3.36443C0.664062 2.84198 1.08808 2.41797 1.61052 2.41797ZM1.47531 4.80413V10.9361C1.47531 11.0107 1.53589 11.0713 1.61052 11.0713H12.6976C12.7335 11.0713 12.7679 11.0571 12.7932 11.0317C12.8186 11.0063 12.8328 10.972 12.8328 10.9361V4.80413L7.68408 8.28331C7.3639 8.49964 6.94422 8.49964 6.62405 8.28331L1.47531 4.80413ZM1.47531 3.36443V3.82522L7.07835 7.61105C7.1007 7.62616 7.12707 7.63424 7.15406 7.63424C7.18105 7.63424 7.20742 7.62616 7.22978 7.61105L12.8328 3.82522V3.36443C12.8328 3.32857 12.8186 3.29418 12.7932 3.26882C12.7679 3.24346 12.7335 3.22922 12.6976 3.22922H1.61052C1.57466 3.22922 1.54027 3.24346 1.51491 3.26882C1.48956 3.29418 1.47531 3.32857 1.47531 3.36443Z" fill="#040313" fill-opacity="0.5"/>
</g>
<defs>
<clipPath id="clip0_1047_44741">
<rect width="12.98" height="12.98" fill="white" transform="translate(0.664062 0.795898)"/>
</clipPath>
</defs>
</svg>
