<svg width="416" height="1144" viewBox="0 0 416 1144" fill="none" xmlns="http://www.w3.org/2000/svg">
<mask id="mask0_1560_8158" style="mask-type:alpha" maskUnits="userSpaceOnUse" x="0" y="0" width="416" height="1144">
<path d="M0 0H415.948V1143.86H0V0Z" fill="#D9D9D9"/>
</mask>
<g mask="url(#mask0_1560_8158)">
<path d="M0.375 148.122L416.321 322.961" stroke="white" stroke-opacity="0.06" stroke-width="1.14271"/>
<path d="M0.375 472.653L416.321 647.492" stroke="white" stroke-opacity="0.06" stroke-width="1.14271"/>
<path d="M0.375 477.224L416.321 652.063" stroke="white" stroke-opacity="0.06" stroke-width="1.14271"/>
<path d="M0.375 481.795L416.321 656.634" stroke="white" stroke-opacity="0.06" stroke-width="1.14271"/>
<path d="M0.375 486.365L416.321 661.205" stroke="white" stroke-opacity="0.06" stroke-width="1.14271"/>
<path d="M0.375 490.936L416.321 665.776" stroke="white" stroke-opacity="0.06" stroke-width="1.14271"/>
<path d="M0.375 495.507L416.321 670.347" stroke="white" stroke-opacity="0.06" stroke-width="1.14271"/>
<path d="M0.375 500.078L416.321 674.918" stroke="white" stroke-opacity="0.06" stroke-width="1.14271"/>
<path d="M0.375 504.649L416.321 679.488" stroke="white" stroke-opacity="0.06" stroke-width="1.14271"/>
<path d="M0.375 509.22L416.321 684.059" stroke="white" stroke-opacity="0.06" stroke-width="1.14271"/>
<path d="M0.375 513.791L416.321 688.63" stroke="white" stroke-opacity="0.06" stroke-width="1.14271"/>
<path d="M0.375 518.361L416.321 693.201" stroke="white" stroke-opacity="0.06" stroke-width="1.14271"/>
<path d="M0.375 522.932L416.321 697.772" stroke="white" stroke-opacity="0.06" stroke-width="1.14271"/>
<path d="M0.375 527.503L416.321 702.343" stroke="white" stroke-opacity="0.06" stroke-width="1.14271"/>
<path d="M0.375 532.074L416.321 706.913" stroke="white" stroke-opacity="0.06" stroke-width="1.14271"/>
<path d="M0.375 536.645L416.321 711.484" stroke="white" stroke-opacity="0.06" stroke-width="1.14271"/>
<path d="M0.375 541.216L416.321 716.055" stroke="white" stroke-opacity="0.06" stroke-width="1.14271"/>
<path d="M0.375 545.787L416.321 720.626" stroke="white" stroke-opacity="0.06" stroke-width="1.14271"/>
<path d="M0.375 550.357L416.321 725.197" stroke="white" stroke-opacity="0.06" stroke-width="1.14271"/>
<path d="M0.375 554.928L416.321 729.768" stroke="white" stroke-opacity="0.06" stroke-width="1.14271"/>
<path d="M0.375 559.499L416.321 734.339" stroke="white" stroke-opacity="0.06" stroke-width="1.14271"/>
<path d="M0.375 564.07L416.321 738.909" stroke="white" stroke-opacity="0.06" stroke-width="1.14271"/>
<path d="M0.375 568.641L416.321 743.48" stroke="white" stroke-opacity="0.06" stroke-width="1.14271"/>
<path d="M0.375 573.212L416.321 748.051" stroke="white" stroke-opacity="0.06" stroke-width="1.14271"/>
<path d="M0.375 577.783L416.321 752.622" stroke="white" stroke-opacity="0.06" stroke-width="1.14271"/>
<path d="M0.375 582.354L416.321 757.193" stroke="white" stroke-opacity="0.06" stroke-width="1.14271"/>
<path d="M0.375 586.924L416.321 761.764" stroke="white" stroke-opacity="0.06" stroke-width="1.14271"/>
<path d="M0.375 591.495L416.321 766.335" stroke="white" stroke-opacity="0.06" stroke-width="1.14271"/>
<path d="M0.375 596.066L416.321 770.905" stroke="white" stroke-opacity="0.06" stroke-width="1.14271"/>
<path d="M0.375 600.637L416.321 775.476" stroke="white" stroke-opacity="0.06" stroke-width="1.14271"/>
<path d="M0.375 605.208L416.321 780.047" stroke="white" stroke-opacity="0.06" stroke-width="1.14271"/>
<path d="M0.375 609.779L416.321 784.618" stroke="white" stroke-opacity="0.06" stroke-width="1.14271"/>
<path d="M0.375 614.35L416.321 789.189" stroke="white" stroke-opacity="0.06" stroke-width="1.14271"/>
<path d="M0.375 618.92L416.321 793.76" stroke="white" stroke-opacity="0.06" stroke-width="1.14271"/>
<path d="M0.375 623.491L416.321 798.331" stroke="white" stroke-opacity="0.06" stroke-width="1.14271"/>
<path d="M0.375 628.062L416.321 802.901" stroke="white" stroke-opacity="0.06" stroke-width="1.14271"/>
<path d="M0.375 632.633L416.321 807.472" stroke="white" stroke-opacity="0.06" stroke-width="1.14271"/>
<path d="M0.375 637.204L416.321 812.043" stroke="white" stroke-opacity="0.06" stroke-width="1.14271"/>
<path d="M0.375 641.775L416.321 816.614" stroke="white" stroke-opacity="0.06" stroke-width="1.14271"/>
<path d="M0.375 646.345L416.321 821.185" stroke="white" stroke-opacity="0.06" stroke-width="1.14271"/>
<path d="M0.375 650.917L416.321 825.756" stroke="white" stroke-opacity="0.06" stroke-width="1.14271"/>
<path d="M0.375 655.487L416.321 830.327" stroke="white" stroke-opacity="0.06" stroke-width="1.14271"/>
<path d="M0.375 660.058L416.321 834.898" stroke="white" stroke-opacity="0.06" stroke-width="1.14271"/>
<path d="M0.375 664.629L416.321 839.468" stroke="white" stroke-opacity="0.06" stroke-width="1.14271"/>
<path d="M0.375 669.2L416.321 844.039" stroke="white" stroke-opacity="0.06" stroke-width="1.14271"/>
<path d="M0.375 673.771L416.321 848.61" stroke="white" stroke-opacity="0.06" stroke-width="1.14271"/>
<path d="M0.375 678.342L416.321 853.181" stroke="white" stroke-opacity="0.06" stroke-width="1.14271"/>
<path d="M0.375 682.912L416.321 857.752" stroke="white" stroke-opacity="0.06" stroke-width="1.14271"/>
<path d="M0.375 687.483L416.321 862.323" stroke="white" stroke-opacity="0.06" stroke-width="1.14271"/>
<path d="M0.375 692.054L416.321 866.894" stroke="white" stroke-opacity="0.06" stroke-width="1.14271"/>
<path d="M0.375 696.625L416.321 871.464" stroke="white" stroke-opacity="0.06" stroke-width="1.14271"/>
<path d="M0.375 701.196L416.321 876.035" stroke="white" stroke-opacity="0.06" stroke-width="1.14271"/>
<path d="M0.375 705.767L416.321 880.606" stroke="white" stroke-opacity="0.06" stroke-width="1.14271"/>
<path d="M0.375 710.337L416.321 885.177" stroke="white" stroke-opacity="0.06" stroke-width="1.14271"/>
<path d="M0.375 714.908L416.321 889.748" stroke="white" stroke-opacity="0.06" stroke-width="1.14271"/>
<path d="M0.375 719.479L416.321 894.319" stroke="white" stroke-opacity="0.06" stroke-width="1.14271"/>
<path d="M0.375 724.05L416.321 898.889" stroke="white" stroke-opacity="0.06" stroke-width="1.14271"/>
<path d="M0.375 728.621L416.321 903.461" stroke="white" stroke-opacity="0.06" stroke-width="1.14271"/>
<path d="M0.375 733.192L416.321 908.031" stroke="white" stroke-opacity="0.06" stroke-width="1.14271"/>
<path d="M0.375 737.763L416.321 912.602" stroke="white" stroke-opacity="0.06" stroke-width="1.14271"/>
<path d="M0.375 742.333L416.321 917.173" stroke="white" stroke-opacity="0.06" stroke-width="1.14271"/>
<path d="M0.375 746.904L416.321 921.744" stroke="white" stroke-opacity="0.06" stroke-width="1.14271"/>
<path d="M0.375 751.475L416.321 926.315" stroke="white" stroke-opacity="0.06" stroke-width="1.14271"/>
<path d="M0.375 756.046L416.321 930.886" stroke="white" stroke-opacity="0.06" stroke-width="1.14271"/>
<path d="M0.375 760.617L416.321 935.456" stroke="white" stroke-opacity="0.06" stroke-width="1.14271"/>
<path d="M0.375 765.188L416.321 940.027" stroke="white" stroke-opacity="0.06" stroke-width="1.14271"/>
<path d="M0.375 769.759L416.321 944.598" stroke="white" stroke-opacity="0.06" stroke-width="1.14271"/>
<path d="M0.375 774.33L416.321 949.169" stroke="white" stroke-opacity="0.06" stroke-width="1.14271"/>
<path d="M0.375 778.9L416.321 953.74" stroke="white" stroke-opacity="0.06" stroke-width="1.14271"/>
<path d="M0.375 783.471L416.321 958.311" stroke="white" stroke-opacity="0.06" stroke-width="1.14271"/>
<path d="M0.375 788.042L416.321 962.881" stroke="white" stroke-opacity="0.06" stroke-width="1.14271"/>
<path d="M0.375 792.613L416.321 967.452" stroke="white" stroke-opacity="0.06" stroke-width="1.14271"/>
<path d="M0.375 797.184L416.321 972.023" stroke="white" stroke-opacity="0.06" stroke-width="1.14271"/>
<path d="M0.375 801.755L416.321 976.594" stroke="white" stroke-opacity="0.06" stroke-width="1.14271"/>
<path d="M0.375 806.326L416.321 981.165" stroke="white" stroke-opacity="0.06" stroke-width="1.14271"/>
<path d="M0.375 810.896L416.321 985.736" stroke="white" stroke-opacity="0.06" stroke-width="1.14271"/>
<path d="M0.375 815.467L416.321 990.307" stroke="white" stroke-opacity="0.06" stroke-width="1.14271"/>
<path d="M0.375 820.038L416.321 994.878" stroke="white" stroke-opacity="0.06" stroke-width="1.14271"/>
<path d="M0.375 824.609L416.321 999.448" stroke="white" stroke-opacity="0.06" stroke-width="1.14271"/>
<path d="M0.375 829.18L416.321 1004.02" stroke="white" stroke-opacity="0.06" stroke-width="1.14271"/>
<path d="M0.375 833.751L416.321 1008.59" stroke="white" stroke-opacity="0.06" stroke-width="1.14271"/>
<path d="M0.375 838.322L416.321 1013.16" stroke="white" stroke-opacity="0.06" stroke-width="1.14271"/>
<path d="M0.375 842.892L416.321 1017.73" stroke="white" stroke-opacity="0.06" stroke-width="1.14271"/>
<path d="M0.375 847.463L416.321 1022.3" stroke="white" stroke-opacity="0.06" stroke-width="1.14271"/>
<path d="M0.375 852.034L416.321 1026.87" stroke="white" stroke-opacity="0.06" stroke-width="1.14271"/>
<path d="M0.375 856.605L416.321 1031.44" stroke="white" stroke-opacity="0.06" stroke-width="1.14271"/>
<path d="M0.375 861.176L416.321 1036.02" stroke="white" stroke-opacity="0.06" stroke-width="1.14271"/>
<path d="M0.375 865.747L416.321 1040.59" stroke="white" stroke-opacity="0.06" stroke-width="1.14271"/>
<path d="M0.375 870.317L416.321 1045.16" stroke="white" stroke-opacity="0.06" stroke-width="1.14271"/>
<path d="M0.375 874.888L416.321 1049.73" stroke="white" stroke-opacity="0.06" stroke-width="1.14271"/>
<path d="M0.375 879.459L416.321 1054.3" stroke="white" stroke-opacity="0.06" stroke-width="1.14271"/>
<path d="M0.375 884.03L416.321 1058.87" stroke="white" stroke-opacity="0.06" stroke-width="1.14271"/>
<path d="M0.375 888.601L416.321 1063.44" stroke="white" stroke-opacity="0.06" stroke-width="1.14271"/>
<path d="M0.375 893.172L416.321 1068.01" stroke="white" stroke-opacity="0.06" stroke-width="1.14271"/>
<path d="M0.375 897.743L416.321 1072.58" stroke="white" stroke-opacity="0.06" stroke-width="1.14271"/>
<path d="M0.375 902.313L416.321 1077.15" stroke="white" stroke-opacity="0.06" stroke-width="1.14271"/>
<path d="M0.375 906.884L416.321 1081.72" stroke="white" stroke-opacity="0.06" stroke-width="1.14271"/>
<path d="M0.375 911.455L416.321 1086.29" stroke="white" stroke-opacity="0.06" stroke-width="1.14271"/>
<path d="M0.375 916.026L416.321 1090.87" stroke="white" stroke-opacity="0.06" stroke-width="1.14271"/>
<path d="M0.375 920.597L416.321 1095.44" stroke="white" stroke-opacity="0.06" stroke-width="1.14271"/>
<path d="M0.375 925.168L416.321 1100.01" stroke="white" stroke-opacity="0.06" stroke-width="1.14271"/>
<path d="M0.375 929.739L416.321 1104.58" stroke="white" stroke-opacity="0.06" stroke-width="1.14271"/>
<path d="M0.375 934.31L416.321 1109.15" stroke="white" stroke-opacity="0.06" stroke-width="1.14271"/>
<path d="M0.375 938.88L416.321 1113.72" stroke="white" stroke-opacity="0.06" stroke-width="1.14271"/>
<path d="M0.375 943.451L416.321 1118.29" stroke="white" stroke-opacity="0.06" stroke-width="1.14271"/>
<path d="M0.375 948.022L416.321 1122.86" stroke="white" stroke-opacity="0.06" stroke-width="1.14271"/>
<path d="M0.375 952.593L416.321 1127.43" stroke="white" stroke-opacity="0.06" stroke-width="1.14271"/>
<path d="M0.375 957.164L416.321 1132" stroke="white" stroke-opacity="0.06" stroke-width="1.14271"/>
<path d="M0.375 961.735L416.321 1136.57" stroke="white" stroke-opacity="0.06" stroke-width="1.14271"/>
<path d="M0.375 966.306L416.321 1141.15" stroke="white" stroke-opacity="0.06" stroke-width="1.14271"/>
<path d="M0.375 970.876L416.321 1145.72" stroke="white" stroke-opacity="0.06" stroke-width="1.14271"/>
<path d="M0.375 975.447L416.321 1150.29" stroke="white" stroke-opacity="0.06" stroke-width="1.14271"/>
<path d="M0.375 980.018L416.321 1154.86" stroke="white" stroke-opacity="0.06" stroke-width="1.14271"/>
<path d="M0.375 984.589L416.321 1159.43" stroke="white" stroke-opacity="0.06" stroke-width="1.14271"/>
<path d="M0.375 989.16L416.321 1164" stroke="white" stroke-opacity="0.06" stroke-width="1.14271"/>
<path d="M0.375 993.731L416.321 1168.57" stroke="white" stroke-opacity="0.06" stroke-width="1.14271"/>
<path d="M0.375 998.302L416.321 1173.14" stroke="white" stroke-opacity="0.06" stroke-width="1.14271"/>
<path d="M0.375 1002.87L416.321 1177.71" stroke="white" stroke-opacity="0.06" stroke-width="1.14271"/>
<path d="M0.375 1007.44L416.321 1182.28" stroke="white" stroke-opacity="0.06" stroke-width="1.14271"/>
<path d="M0.375 1012.01L416.321 1186.85" stroke="white" stroke-opacity="0.06" stroke-width="1.14271"/>
<path d="M0.375 1016.58L416.321 1191.42" stroke="white" stroke-opacity="0.06" stroke-width="1.14271"/>
<path d="M0.375 1021.16L416.321 1196" stroke="white" stroke-opacity="0.06" stroke-width="1.14271"/>
<path d="M0.375 1025.73L416.321 1200.57" stroke="white" stroke-opacity="0.06" stroke-width="1.14271"/>
<path d="M0.375 1030.3L416.321 1205.14" stroke="white" stroke-opacity="0.06" stroke-width="1.14271"/>
<path d="M0.375 1034.87L416.321 1209.71" stroke="white" stroke-opacity="0.06" stroke-width="1.14271"/>
<path d="M0.375 1039.44L416.321 1214.28" stroke="white" stroke-opacity="0.06" stroke-width="1.14271"/>
<path d="M0.375 1044.01L416.321 1218.85" stroke="white" stroke-opacity="0.06" stroke-width="1.14271"/>
<path d="M0.375 1048.58L416.321 1223.42" stroke="white" stroke-opacity="0.06" stroke-width="1.14271"/>
<path d="M0.375 1053.15L416.321 1227.99" stroke="white" stroke-opacity="0.06" stroke-width="1.14271"/>
<path d="M0.375 1057.72L416.321 1232.56" stroke="white" stroke-opacity="0.06" stroke-width="1.14271"/>
<path d="M0.375 1062.29L416.321 1237.13" stroke="white" stroke-opacity="0.06" stroke-width="1.14271"/>
<path d="M0.375 1066.86L416.321 1241.7" stroke="white" stroke-opacity="0.06" stroke-width="1.14271"/>
<path d="M0.375 1071.44L416.321 1246.27" stroke="white" stroke-opacity="0.06" stroke-width="1.14271"/>
<path d="M0.375 1076.01L416.321 1250.85" stroke="white" stroke-opacity="0.06" stroke-width="1.14271"/>
<path d="M0.375 1080.58L416.321 1255.42" stroke="white" stroke-opacity="0.06" stroke-width="1.14271"/>
<path d="M0.375 1085.15L416.321 1259.99" stroke="white" stroke-opacity="0.06" stroke-width="1.14271"/>
<path d="M0.375 1089.72L416.321 1264.56" stroke="white" stroke-opacity="0.06" stroke-width="1.14271"/>
<path d="M0.375 1094.29L416.321 1269.13" stroke="white" stroke-opacity="0.06" stroke-width="1.14271"/>
<path d="M0.375 1098.86L416.321 1273.7" stroke="white" stroke-opacity="0.06" stroke-width="1.14271"/>
<path d="M0.375 1103.43L416.321 1278.27" stroke="white" stroke-opacity="0.06" stroke-width="1.14271"/>
<path d="M0.375 1108L416.321 1282.84" stroke="white" stroke-opacity="0.06" stroke-width="1.14271"/>
<path d="M0.375 1112.57L416.321 1287.41" stroke="white" stroke-opacity="0.06" stroke-width="1.14271"/>
<path d="M0.375 1117.14L416.321 1291.98" stroke="white" stroke-opacity="0.06" stroke-width="1.14271"/>
<path d="M0.375 1121.71L416.321 1296.55" stroke="white" stroke-opacity="0.06" stroke-width="1.14271"/>
<path d="M0.375 1126.29L416.321 1301.13" stroke="white" stroke-opacity="0.06" stroke-width="1.14271"/>
<path d="M0.375 1130.86L416.321 1305.7" stroke="white" stroke-opacity="0.06" stroke-width="1.14271"/>
<path d="M0.375 1135.43L416.321 1310.27" stroke="white" stroke-opacity="0.06" stroke-width="1.14271"/>
<path d="M0.375 1140L416.321 1314.84" stroke="white" stroke-opacity="0.06" stroke-width="1.14271"/>
<path d="M0.375 143.551L416.321 318.39" stroke="white" stroke-opacity="0.06" stroke-width="1.14271"/>
<path d="M0.375 468.082L416.321 642.921" stroke="white" stroke-opacity="0.06" stroke-width="1.14271"/>
<path d="M0.375 138.98L416.321 313.82" stroke="white" stroke-opacity="0.06" stroke-width="1.14271"/>
<path d="M0.375 463.511L416.321 638.351" stroke="white" stroke-opacity="0.06" stroke-width="1.14271"/>
<path d="M0.375 134.409L416.321 309.249" stroke="white" stroke-opacity="0.06" stroke-width="1.14271"/>
<path d="M0.375 458.94L416.321 633.78" stroke="white" stroke-opacity="0.06" stroke-width="1.14271"/>
<path d="M0.375 129.838L416.321 304.678" stroke="white" stroke-opacity="0.06" stroke-width="1.14271"/>
<path d="M0.375 454.369L416.321 629.209" stroke="white" stroke-opacity="0.06" stroke-width="1.14271"/>
<path d="M0.375 125.268L416.321 300.107" stroke="white" stroke-opacity="0.06" stroke-width="1.14271"/>
<path d="M0.375 449.799L416.321 624.638" stroke="white" stroke-opacity="0.06" stroke-width="1.14271"/>
<path d="M0.375 120.697L416.321 295.536" stroke="white" stroke-opacity="0.06" stroke-width="1.14271"/>
<path d="M0.375 445.228L416.321 620.067" stroke="white" stroke-opacity="0.06" stroke-width="1.14271"/>
<path d="M0.375 116.126L416.321 290.965" stroke="white" stroke-opacity="0.06" stroke-width="1.14271"/>
<path d="M0.375 440.657L416.321 615.496" stroke="white" stroke-opacity="0.06" stroke-width="1.14271"/>
<path d="M0.375 111.555L416.321 286.395" stroke="white" stroke-opacity="0.06" stroke-width="1.14271"/>
<path d="M0.375 436.086L416.321 610.925" stroke="white" stroke-opacity="0.06" stroke-width="1.14271"/>
<path d="M0.375 106.984L416.321 281.824" stroke="white" stroke-opacity="0.06" stroke-width="1.14271"/>
<path d="M0.375 431.515L416.321 606.355" stroke="white" stroke-opacity="0.06" stroke-width="1.14271"/>
<path d="M0.375 102.413L416.321 277.253" stroke="white" stroke-opacity="0.06" stroke-width="1.14271"/>
<path d="M0.375 426.944L416.321 601.784" stroke="white" stroke-opacity="0.06" stroke-width="1.14271"/>
<path d="M0.375 97.8425L416.321 272.682" stroke="white" stroke-opacity="0.06" stroke-width="1.14271"/>
<path d="M0.375 422.374L416.321 597.213" stroke="white" stroke-opacity="0.06" stroke-width="1.14271"/>
<path d="M0.375 93.2717L416.321 268.111" stroke="white" stroke-opacity="0.06" stroke-width="1.14271"/>
<path d="M0.375 417.803L416.321 592.642" stroke="white" stroke-opacity="0.06" stroke-width="1.14271"/>
<path d="M0.375 88.7007L416.321 263.54" stroke="white" stroke-opacity="0.06" stroke-width="1.14271"/>
<path d="M0.375 413.232L416.321 588.071" stroke="white" stroke-opacity="0.06" stroke-width="1.14271"/>
<path d="M0.375 84.1299L416.321 258.969" stroke="white" stroke-opacity="0.06" stroke-width="1.14271"/>
<path d="M0.375 408.661L416.321 583.5" stroke="white" stroke-opacity="0.06" stroke-width="1.14271"/>
<path d="M0.375 79.5591L416.321 254.399" stroke="white" stroke-opacity="0.06" stroke-width="1.14271"/>
<path d="M0.375 404.09L416.321 578.93" stroke="white" stroke-opacity="0.06" stroke-width="1.14271"/>
<path d="M0.375 74.9883L416.321 249.828" stroke="white" stroke-opacity="0.06" stroke-width="1.14271"/>
<path d="M0.375 399.519L416.321 574.358" stroke="white" stroke-opacity="0.06" stroke-width="1.14271"/>
<path d="M0.375 70.4172L416.321 245.257" stroke="white" stroke-opacity="0.06" stroke-width="1.14271"/>
<path d="M0.375 394.948L416.321 569.788" stroke="white" stroke-opacity="0.06" stroke-width="1.14271"/>
<path d="M0.375 65.8464L416.321 240.686" stroke="white" stroke-opacity="0.06" stroke-width="1.14271"/>
<path d="M0.375 390.377L416.321 565.217" stroke="white" stroke-opacity="0.06" stroke-width="1.14271"/>
<path d="M0.375 61.2756L416.321 236.115" stroke="white" stroke-opacity="0.06" stroke-width="1.14271"/>
<path d="M0.375 385.807L416.321 560.646" stroke="white" stroke-opacity="0.06" stroke-width="1.14271"/>
<path d="M0.375 56.7048L416.321 231.544" stroke="white" stroke-opacity="0.06" stroke-width="1.14271"/>
<path d="M0.375 381.236L416.321 556.075" stroke="white" stroke-opacity="0.06" stroke-width="1.14271"/>
<path d="M0.375 52.1338L416.321 226.973" stroke="white" stroke-opacity="0.06" stroke-width="1.14271"/>
<path d="M0.375 376.665L416.321 551.504" stroke="white" stroke-opacity="0.06" stroke-width="1.14271"/>
<path d="M0.375 47.563L416.321 222.402" stroke="white" stroke-opacity="0.06" stroke-width="1.14271"/>
<path d="M0.375 372.094L416.321 546.933" stroke="white" stroke-opacity="0.06" stroke-width="1.14271"/>
<path d="M0.375 42.9922L416.321 217.832" stroke="white" stroke-opacity="0.06" stroke-width="1.14271"/>
<path d="M0.375 367.523L416.321 542.363" stroke="white" stroke-opacity="0.06" stroke-width="1.14271"/>
<path d="M0.375 38.4214L416.321 213.261" stroke="white" stroke-opacity="0.06" stroke-width="1.14271"/>
<path d="M0.375 362.952L416.321 537.792" stroke="white" stroke-opacity="0.06" stroke-width="1.14271"/>
<path d="M0.375 33.8506L416.321 208.69" stroke="white" stroke-opacity="0.06" stroke-width="1.14271"/>
<path d="M0.375 358.381L416.321 533.221" stroke="white" stroke-opacity="0.06" stroke-width="1.14271"/>
<path d="M0.375 29.2795L416.321 204.119" stroke="white" stroke-opacity="0.06" stroke-width="1.14271"/>
<path d="M0.375 353.811L416.321 528.65" stroke="white" stroke-opacity="0.06" stroke-width="1.14271"/>
<path d="M0.375 24.7087L416.321 199.548" stroke="white" stroke-opacity="0.06" stroke-width="1.14271"/>
<path d="M0.375 349.24L416.321 524.079" stroke="white" stroke-opacity="0.06" stroke-width="1.14271"/>
<path d="M0.375 20.1379L416.321 194.977" stroke="white" stroke-opacity="0.06" stroke-width="1.14271"/>
<path d="M0.375 344.669L416.321 519.508" stroke="white" stroke-opacity="0.06" stroke-width="1.14271"/>
<path d="M0.375 15.5671L416.321 190.407" stroke="white" stroke-opacity="0.06" stroke-width="1.14271"/>
<path d="M0.375 340.098L416.321 514.937" stroke="white" stroke-opacity="0.06" stroke-width="1.14271"/>
<path d="M0.375 10.9961L416.321 185.836" stroke="white" stroke-opacity="0.06" stroke-width="1.14271"/>
<path d="M0.375 335.527L416.321 510.367" stroke="white" stroke-opacity="0.06" stroke-width="1.14271"/>
<path d="M0.375 6.42529L416.321 181.265" stroke="white" stroke-opacity="0.06" stroke-width="1.14271"/>
<path d="M0.375 330.956L416.321 505.796" stroke="white" stroke-opacity="0.06" stroke-width="1.14271"/>
<path d="M0.375 1.85449L416.321 176.694" stroke="white" stroke-opacity="0.06" stroke-width="1.14271"/>
<path d="M0.375 326.385L416.321 501.225" stroke="white" stroke-opacity="0.06" stroke-width="1.14271"/>
<path d="M0.375 -2.71631L416.321 172.123" stroke="white" stroke-opacity="0.06" stroke-width="1.14271"/>
<path d="M0.375 321.814L416.321 496.654" stroke="white" stroke-opacity="0.06" stroke-width="1.14271"/>
<path d="M0.375 -7.28735L416.321 167.552" stroke="white" stroke-opacity="0.06" stroke-width="1.14271"/>
<path d="M0.375 317.244L416.321 492.083" stroke="white" stroke-opacity="0.06" stroke-width="1.14271"/>
<path d="M0.375 -11.8582L416.321 162.981" stroke="white" stroke-opacity="0.06" stroke-width="1.14271"/>
<path d="M0.375 312.673L416.321 487.512" stroke="white" stroke-opacity="0.06" stroke-width="1.14271"/>
<path d="M0.375 -16.429L416.321 158.41" stroke="white" stroke-opacity="0.06" stroke-width="1.14271"/>
<path d="M0.375 308.102L416.321 482.941" stroke="white" stroke-opacity="0.06" stroke-width="1.14271"/>
<path d="M0.375 -20.9998L416.321 153.84" stroke="white" stroke-opacity="0.06" stroke-width="1.14271"/>
<path d="M0.375 303.531L416.321 478.371" stroke="white" stroke-opacity="0.06" stroke-width="1.14271"/>
<path d="M0.375 -25.5708L416.321 149.269" stroke="white" stroke-opacity="0.06" stroke-width="1.14271"/>
<path d="M0.375 298.96L416.321 473.8" stroke="white" stroke-opacity="0.06" stroke-width="1.14271"/>
<path d="M0.375 -30.1416L416.321 144.698" stroke="white" stroke-opacity="0.06" stroke-width="1.14271"/>
<path d="M0.375 294.389L416.321 469.229" stroke="white" stroke-opacity="0.06" stroke-width="1.14271"/>
<path d="M0.375 -34.7124L416.321 140.127" stroke="white" stroke-opacity="0.06" stroke-width="1.14271"/>
<path d="M0.375 289.819L416.321 464.658" stroke="white" stroke-opacity="0.06" stroke-width="1.14271"/>
<path d="M0.375 -39.2832L416.321 135.556" stroke="white" stroke-opacity="0.06" stroke-width="1.14271"/>
<path d="M0.375 285.248L416.321 460.087" stroke="white" stroke-opacity="0.06" stroke-width="1.14271"/>
<path d="M0.375 -43.854L416.321 130.985" stroke="white" stroke-opacity="0.06" stroke-width="1.14271"/>
<path d="M0.375 280.677L416.321 455.516" stroke="white" stroke-opacity="0.06" stroke-width="1.14271"/>
<path d="M0.375 -48.425L416.321 126.414" stroke="white" stroke-opacity="0.06" stroke-width="1.14271"/>
<path d="M0.375 276.106L416.321 450.945" stroke="white" stroke-opacity="0.06" stroke-width="1.14271"/>
<path d="M0.375 -52.9958L416.321 121.844" stroke="white" stroke-opacity="0.06" stroke-width="1.14271"/>
<path d="M0.375 271.535L416.321 446.375" stroke="white" stroke-opacity="0.06" stroke-width="1.14271"/>
<path d="M0.375 -57.5667L416.321 117.273" stroke="white" stroke-opacity="0.06" stroke-width="1.14271"/>
<path d="M0.375 266.964L416.321 441.804" stroke="white" stroke-opacity="0.06" stroke-width="1.14271"/>
<path d="M0.375 -62.1375L416.321 112.702" stroke="white" stroke-opacity="0.06" stroke-width="1.14271"/>
<path d="M0.375 262.393L416.321 437.233" stroke="white" stroke-opacity="0.06" stroke-width="1.14271"/>
<path d="M0.375 -66.7085L416.321 108.131" stroke="white" stroke-opacity="0.06" stroke-width="1.14271"/>
<path d="M0.375 257.823L416.321 432.662" stroke="white" stroke-opacity="0.06" stroke-width="1.14271"/>
<path d="M0.375 -71.2793L416.321 103.56" stroke="white" stroke-opacity="0.06" stroke-width="1.14271"/>
<path d="M0.375 253.252L416.321 428.091" stroke="white" stroke-opacity="0.06" stroke-width="1.14271"/>
<path d="M0.375 -75.8501L416.321 98.9893" stroke="white" stroke-opacity="0.06" stroke-width="1.14271"/>
<path d="M0.375 248.681L416.321 423.52" stroke="white" stroke-opacity="0.06" stroke-width="1.14271"/>
<path d="M0.375 -80.4209L416.321 94.4185" stroke="white" stroke-opacity="0.06" stroke-width="1.14271"/>
<path d="M0.375 244.11L416.321 418.949" stroke="white" stroke-opacity="0.06" stroke-width="1.14271"/>
<path d="M0.375 -84.9919L416.321 89.8475" stroke="white" stroke-opacity="0.06" stroke-width="1.14271"/>
<path d="M0.375 239.539L416.321 414.378" stroke="white" stroke-opacity="0.06" stroke-width="1.14271"/>
<path d="M0.375 -89.5627L416.321 85.2767" stroke="white" stroke-opacity="0.06" stroke-width="1.14271"/>
<path d="M0.375 234.968L416.321 409.808" stroke="white" stroke-opacity="0.06" stroke-width="1.14271"/>
<path d="M0.375 -94.1335L416.321 80.7059" stroke="white" stroke-opacity="0.06" stroke-width="1.14271"/>
<path d="M0.375 230.397L416.321 405.237" stroke="white" stroke-opacity="0.06" stroke-width="1.14271"/>
<path d="M0.375 -98.7043L416.321 76.1351" stroke="white" stroke-opacity="0.06" stroke-width="1.14271"/>
<path d="M0.375 225.827L416.321 400.666" stroke="white" stroke-opacity="0.06" stroke-width="1.14271"/>
<path d="M0.375 -103.275L416.321 71.564" stroke="white" stroke-opacity="0.06" stroke-width="1.14271"/>
<path d="M0.375 221.256L416.321 396.095" stroke="white" stroke-opacity="0.06" stroke-width="1.14271"/>
<path d="M0.375 -107.846L416.321 66.9932" stroke="white" stroke-opacity="0.06" stroke-width="1.14271"/>
<path d="M0.375 216.685L416.321 391.524" stroke="white" stroke-opacity="0.06" stroke-width="1.14271"/>
<path d="M0.375 -112.417L416.321 62.4224" stroke="white" stroke-opacity="0.06" stroke-width="1.14271"/>
<path d="M0.375 212.114L416.321 386.953" stroke="white" stroke-opacity="0.06" stroke-width="1.14271"/>
<path d="M0.375 -116.988L416.321 57.8516" stroke="white" stroke-opacity="0.06" stroke-width="1.14271"/>
<path d="M0.375 207.543L416.321 382.382" stroke="white" stroke-opacity="0.06" stroke-width="1.14271"/>
<path d="M0.375 -121.559L416.321 53.2808" stroke="white" stroke-opacity="0.06" stroke-width="1.14271"/>
<path d="M0.375 202.972L416.321 377.812" stroke="white" stroke-opacity="0.06" stroke-width="1.14271"/>
<path d="M0.375 -126.13L416.321 48.7098" stroke="white" stroke-opacity="0.06" stroke-width="1.14271"/>
<path d="M0.375 198.401L416.321 373.241" stroke="white" stroke-opacity="0.06" stroke-width="1.14271"/>
<path d="M0.375 -130.7L416.321 44.139" stroke="white" stroke-opacity="0.06" stroke-width="1.14271"/>
<path d="M0.375 193.831L416.321 368.67" stroke="white" stroke-opacity="0.06" stroke-width="1.14271"/>
<path d="M0.375 -135.271L416.321 39.5682" stroke="white" stroke-opacity="0.06" stroke-width="1.14271"/>
<path d="M0.375 189.26L416.321 364.099" stroke="white" stroke-opacity="0.06" stroke-width="1.14271"/>
<path d="M0.375 -139.842L416.321 34.9974" stroke="white" stroke-opacity="0.06" stroke-width="1.14271"/>
<path d="M0.375 184.689L416.321 359.528" stroke="white" stroke-opacity="0.06" stroke-width="1.14271"/>
<path d="M0.375 -144.413L416.321 30.4263" stroke="white" stroke-opacity="0.06" stroke-width="1.14271"/>
<path d="M0.375 180.118L416.321 354.957" stroke="white" stroke-opacity="0.06" stroke-width="1.14271"/>
<path d="M0.375 -148.984L416.321 25.8555" stroke="white" stroke-opacity="0.06" stroke-width="1.14271"/>
<path d="M0.375 175.547L416.321 350.387" stroke="white" stroke-opacity="0.06" stroke-width="1.14271"/>
<path d="M0.375 -153.555L416.321 21.2847" stroke="white" stroke-opacity="0.06" stroke-width="1.14271"/>
<path d="M0.375 170.976L416.321 345.816" stroke="white" stroke-opacity="0.06" stroke-width="1.14271"/>
<path d="M0.375 -158.125L416.321 16.7139" stroke="white" stroke-opacity="0.06" stroke-width="1.14271"/>
<path d="M0.375 166.405L416.321 341.245" stroke="white" stroke-opacity="0.06" stroke-width="1.14271"/>
<path d="M0.375 -162.697L416.321 12.1429" stroke="white" stroke-opacity="0.06" stroke-width="1.14271"/>
<path d="M0.375 161.834L416.321 336.674" stroke="white" stroke-opacity="0.06" stroke-width="1.14271"/>
<path d="M0.375 -167.267L416.321 7.57209" stroke="white" stroke-opacity="0.06" stroke-width="1.14271"/>
<path d="M0.375 157.264L416.321 332.103" stroke="white" stroke-opacity="0.06" stroke-width="1.14271"/>
<path d="M0.375 -171.838L416.321 3.00129" stroke="white" stroke-opacity="0.06" stroke-width="1.14271"/>
<path d="M0.375 152.693L416.321 327.532" stroke="white" stroke-opacity="0.06" stroke-width="1.14271"/>
</g>
</svg>
