<svg width="9" height="13" viewBox="0 0 9 13" fill="none" xmlns="http://www.w3.org/2000/svg">
<path d="M6.65022 0.911356C6.84868 0.911356 7.039 0.990191 7.17933 1.13052C7.31966 1.27085 7.39849 1.46117 7.39849 1.65963V10.6389C7.39849 10.8373 7.31966 11.0276 7.17933 11.168C7.039 11.3083 6.84868 11.3871 6.65022 11.3871H2.1606C1.96215 11.3871 1.77182 11.3083 1.6315 11.168C1.49117 11.0276 1.41233 10.8373 1.41233 10.6389V1.65963C1.41233 1.46117 1.49117 1.27085 1.6315 1.13052C1.77182 0.990191 1.96215 0.911356 2.1606 0.911356H6.65022ZM2.1606 0.163086C1.7637 0.163086 1.38304 0.320757 1.10239 0.601412C0.821733 0.882068 0.664063 1.26272 0.664062 1.65963V10.6389C0.664063 11.0358 0.821733 11.4164 1.10239 11.6971C1.38304 11.9777 1.7637 12.1354 2.1606 12.1354H6.65022C7.04713 12.1354 7.42778 11.9777 7.70844 11.6971C7.98909 11.4164 8.14676 11.0358 8.14676 10.6389V1.65963C8.14676 1.26272 7.98909 0.882068 7.70844 0.601412C7.42778 0.320757 7.04713 0.163086 6.65022 0.163086L2.1606 0.163086Z" fill="#040313" fill-opacity="0.5"/>
<path d="M4.40452 10.6386C4.60297 10.6386 4.7933 10.5598 4.93363 10.4195C5.07395 10.2791 5.15279 10.0888 5.15279 9.89036C5.15279 9.69191 5.07395 9.50158 4.93363 9.36125C4.7933 9.22093 4.60297 9.14209 4.40452 9.14209C4.20607 9.14209 4.01574 9.22093 3.87541 9.36125C3.73509 9.50158 3.65625 9.69191 3.65625 9.89036C3.65625 10.0888 3.73509 10.2791 3.87541 10.4195C4.01574 10.5598 4.20607 10.6386 4.40452 10.6386Z" fill="#040313" fill-opacity="0.5"/>
</svg>
