<svg width="130" height="36" viewBox="0 0 130 36" fill="none" xmlns="http://www.w3.org/2000/svg">
<rect opacity="0.15" x="1.38932" y="1.55534" width="33.3333" height="33.3333" rx="16.6667" stroke="#D0DAF5" stroke-width="1.33333"/>
<path fill-rule="evenodd" clip-rule="evenodd" d="M16.3237 24.889V18.2218H14.9453V15.9242H16.3237V14.5447C16.3237 12.6703 17.1021 11.5557 19.3135 11.5557H21.1545V13.8536H20.0037C19.1429 13.8536 19.0859 14.1747 19.0859 14.7739L19.0828 15.9239H21.1675L20.9236 18.2216H19.0828V24.889H16.3237Z" fill="#D0DAF5"/>
<rect opacity="0.15" x="48.4987" y="1.55534" width="33.3333" height="33.3333" rx="16.6667" stroke="#D0DAF5" stroke-width="1.33333"/>
<path fill-rule="evenodd" clip-rule="evenodd" d="M62.0573 23.999H59.3906V15.999H62.0573V23.999Z" fill="#D0DAF5"/>
<path fill-rule="evenodd" clip-rule="evenodd" d="M60.716 14.2214H60.7009C59.9051 14.2214 59.3906 13.6285 59.3906 12.8876C59.3906 12.131 59.9208 11.5547 60.7317 11.5547C61.5425 11.5547 62.0419 12.131 62.0573 12.8876C62.0573 13.6285 61.5425 14.2214 60.716 14.2214Z" fill="#D0DAF5"/>
<path fill-rule="evenodd" clip-rule="evenodd" d="M71.8358 23.9988H69.2154V19.8171C69.2154 18.7668 68.8362 18.05 67.8876 18.05C67.1636 18.05 66.7324 18.5332 66.543 18.9999C66.4738 19.1672 66.4567 19.4002 66.4567 19.6338V23.999H63.8359C63.8359 23.999 63.8705 16.9162 63.8359 16.1828H66.4567V17.2899C66.8045 16.7577 67.4275 15.999 68.8188 15.999C70.5432 15.999 71.8359 17.1164 71.8359 19.5172L71.8358 23.9988Z" fill="#D0DAF5"/>
<rect opacity="0.15" x="95.612" y="1.55534" width="33.3333" height="33.3333" rx="16.6667" stroke="#D0DAF5" stroke-width="1.33333"/>
<path fill-rule="evenodd" clip-rule="evenodd" d="M112.111 15.9336L112.136 16.3565L111.718 16.3047C110.199 16.1062 108.871 15.433 107.744 14.3024L107.193 13.7414L107.051 14.1556C106.75 15.0792 106.943 16.0544 107.569 16.7104C107.903 17.0729 107.828 17.1247 107.251 16.9089C107.051 16.8399 106.876 16.7881 106.859 16.814C106.801 16.8744 107.001 17.6598 107.16 17.9705C107.377 18.4021 107.819 18.825 108.303 19.0753L108.713 19.2738L108.228 19.2824C107.761 19.2824 107.744 19.2911 107.794 19.4723C107.961 20.0333 108.621 20.6289 109.356 20.8878L109.873 21.069L109.422 21.3452C108.754 21.7422 107.97 21.9666 107.185 21.9839C106.809 21.9925 106.5 22.0271 106.5 22.053C106.5 22.1393 107.519 22.6226 108.111 22.8125C109.89 23.3735 112.002 23.1318 113.589 22.1738C114.716 21.4919 115.843 20.1369 116.369 18.825C116.653 18.1259 116.937 16.8485 116.937 16.2357C116.937 15.8387 116.962 15.7869 117.43 15.3122C117.705 15.036 117.964 14.7339 118.014 14.6476C118.097 14.4836 118.089 14.4836 117.663 14.6303C116.954 14.8893 116.853 14.8547 117.204 14.4664C117.463 14.1902 117.772 13.6896 117.772 13.5428C117.772 13.517 117.647 13.5601 117.505 13.6378C117.354 13.7241 117.02 13.8536 116.77 13.9312L116.319 14.078L115.91 13.7931C115.684 13.6378 115.367 13.4652 115.2 13.4134C114.774 13.2925 114.123 13.3098 113.739 13.4479C112.695 13.8363 112.036 14.8375 112.111 15.9336Z" fill="#D0DAF5"/>
</svg>
